<svg width="20" height="20" viewBox="0 0 20 20" fill="none" xmlns="http://www.w3.org/2000/svg">
<path d="M6.00016 1.66797L6.00016 2.50297L6.00016 1.66797ZM16.6668 4.33464L15.8318 4.33464V4.33464H16.6668ZM16.6668 15.668H17.5018H16.6668ZM16.4852 17.4246L17.2292 17.8037H17.2292L16.4852 17.4246ZM14.0002 18.3346V17.4996V18.3346ZM15.7568 18.153L16.1359 18.897L16.1359 18.897L15.7568 18.153ZM15.7568 1.84963L16.1359 1.10564L15.7568 1.84963ZM16.4852 2.57799L15.7412 2.95707V2.95707L16.4852 2.57799ZM4.24351 1.84962L4.62259 2.59361L4.24351 1.84962ZM3.3335 4.33464H2.4985H3.3335ZM3.51515 2.57798L4.25914 2.95707V2.95707L3.51515 2.57798ZM2.4985 13.3346C2.4985 13.7958 2.87234 14.1696 3.3335 14.1696C3.79465 14.1696 4.1685 13.7958 4.1685 13.3346H2.4985ZM8.3335 17.4996C7.87234 17.4996 7.4985 17.8735 7.4985 18.3346C7.4985 18.7958 7.87234 19.1696 8.3335 19.1696V17.4996ZM3.47576 13.4769L4.06619 12.8865L3.47576 13.4769ZM8.19124 18.1924L7.6008 18.7828L8.19124 18.1924ZM3.53468 13.3346L3.53468 14.1696H3.53468V13.3346ZM7.50016 13.3346V12.4996V13.3346ZM8.3335 14.168H7.4985H8.3335ZM8.3335 18.1335H9.1685H8.3335ZM13.3335 10.8363C13.7947 10.8363 14.1685 10.4625 14.1685 10.0013C14.1685 9.54014 13.7947 9.1663 13.3335 9.1663V10.8363ZM6.66683 9.1663C6.20567 9.1663 5.83183 9.54014 5.83183 10.0013C5.83183 10.4625 6.20567 10.8363 6.66683 10.8363V9.1663ZM13.3335 14.1696C13.7947 14.1696 14.1685 13.7958 14.1685 13.3346C14.1685 12.8735 13.7947 12.4996 13.3335 12.4996V14.1696ZM11.6668 12.4996C11.2057 12.4996 10.8318 12.8735 10.8318 13.3346C10.8318 13.7958 11.2057 14.1696 11.6668 14.1696V12.4996ZM13.3335 7.50297C13.7947 7.50297 14.1685 7.12913 14.1685 6.66797C14.1685 6.20681 13.7947 5.83297 13.3335 5.83297V7.50297ZM6.66683 5.83297C6.20567 5.83297 5.83183 6.20681 5.83183 6.66797C5.83183 7.12913 6.20567 7.50297 6.66683 7.50297V5.83297ZM6.00016 2.50297L14.0002 2.50297V0.832969L6.00016 0.832969L6.00016 2.50297ZM15.8318 4.33464V15.668H17.5018V4.33464H15.8318ZM15.8318 15.668C15.8318 16.1485 15.8312 16.4586 15.8119 16.6946C15.7934 16.9209 15.762 17.0046 15.7412 17.0455L17.2292 17.8037C17.39 17.4881 17.4494 17.1602 17.4763 16.8306C17.5025 16.5108 17.5018 16.1209 17.5018 15.668H15.8318ZM14.0002 19.1696C14.4531 19.1696 14.843 19.1703 15.1628 19.1442C15.4924 19.1172 15.8203 19.0578 16.1359 18.897L15.3777 17.409C15.3368 17.4298 15.2531 17.4612 15.0268 17.4797C14.7908 17.499 14.4807 17.4996 14.0002 17.4996L14.0002 19.1696ZM15.7412 17.0455C15.6615 17.202 15.5342 17.3293 15.3777 17.409L16.1359 18.897C16.6066 18.6571 16.9893 18.2744 17.2292 17.8037L15.7412 17.0455ZM14.0002 2.50297C14.4807 2.50297 14.7908 2.50362 15.0268 2.5229C15.2531 2.54139 15.3368 2.57276 15.3777 2.59362L16.1359 1.10564C15.8203 0.944834 15.4924 0.885376 15.1628 0.85845C14.843 0.83232 14.4531 0.832969 14.0002 0.832969V2.50297ZM17.5018 4.33464C17.5018 3.8817 17.5025 3.49179 17.4764 3.17198C17.4494 2.84242 17.39 2.51449 17.2292 2.1989L15.7412 2.95707C15.762 2.998 15.7934 3.08168 15.8119 3.30797C15.8312 3.544 15.8318 3.85415 15.8318 4.33464L17.5018 4.33464ZM15.3777 2.59362C15.5342 2.67335 15.6615 2.80058 15.7412 2.95707L17.2292 2.1989C16.9893 1.72818 16.6066 1.34548 16.1359 1.10564L15.3777 2.59362ZM6.00016 0.832969C5.54723 0.832969 5.15731 0.832319 4.8375 0.858449C4.50795 0.885375 4.18002 0.944833 3.86443 1.10563L4.62259 2.59361C4.66352 2.57276 4.74721 2.54139 4.9735 2.5229C5.20953 2.50362 5.51968 2.50297 6.00016 2.50297L6.00016 0.832969ZM4.1685 4.33464C4.1685 3.85415 4.16915 3.544 4.18843 3.30797C4.20692 3.08168 4.23829 2.998 4.25914 2.95707L2.77116 2.1989C2.61036 2.51449 2.5509 2.84242 2.52398 3.17198C2.49785 3.49179 2.4985 3.8817 2.4985 4.33464L4.1685 4.33464ZM3.86443 1.10563C3.39371 1.34548 3.01101 1.72818 2.77116 2.1989L4.25914 2.95707C4.33888 2.80058 4.46611 2.67335 4.62259 2.59361L3.86443 1.10563ZM4.1685 13.3346L4.1685 4.33464L2.4985 4.33464L2.4985 13.3346H4.1685ZM14.0002 17.4996H8.3335V19.1696H14.0002V17.4996ZM2.88532 14.0673L7.6008 18.7828L8.78167 17.6019L4.06619 12.8865L2.88532 14.0673ZM3.53468 14.1696H7.50016V12.4996H3.53468V14.1696ZM7.4985 14.168V18.1335H9.1685V14.168H7.4985ZM7.50016 14.1696C7.50147 14.1696 7.50062 14.1697 7.49926 14.1692C7.49846 14.1688 7.49853 14.1687 7.49899 14.1691C7.49944 14.1696 7.49931 14.1697 7.49897 14.1689C7.4984 14.1675 7.4985 14.1667 7.4985 14.168H9.1685C9.1685 13.2466 8.42156 12.4996 7.50016 12.4996V14.1696ZM7.6008 18.7828C8.17933 19.3613 9.1685 18.9516 9.1685 18.1335H7.4985C7.4985 17.4638 8.30814 17.1284 8.78167 17.6019L7.6008 18.7828ZM4.06619 12.8865C4.53971 13.36 4.20434 14.1696 3.53468 14.1696L3.53468 12.4996C2.71653 12.4996 2.3068 13.4888 2.88532 14.0673L4.06619 12.8865ZM13.3335 9.1663H6.66683V10.8363H13.3335V9.1663ZM13.3335 12.4996H11.6668V14.1696H13.3335V12.4996ZM13.3335 5.83297H6.66683V7.50297H13.3335V5.83297Z" fill="#272D37"/>
</svg>
