<svg width="20" height="20" viewBox="0 0 20 20" fill="none" xmlns="http://www.w3.org/2000/svg">
<path d="M13.3332 6.07143L6.6665 8.92857M6.6665 11.0714L13.3332 13.9286M6.6665 10C6.6665 11.3807 5.54722 12.5 4.1665 12.5C2.78579 12.5 1.6665 11.3807 1.6665 10C1.6665 8.61929 2.78579 7.5 4.1665 7.5C5.54722 7.5 6.6665 8.61929 6.6665 10ZM18.3332 5C18.3332 6.38071 17.2139 7.5 15.8332 7.5C14.4525 7.5 13.3332 6.38071 13.3332 5C13.3332 3.61929 14.4525 2.5 15.8332 2.5C17.2139 2.5 18.3332 3.61929 18.3332 5ZM18.3332 15C18.3332 16.3807 17.2139 17.5 15.8332 17.5C14.4525 17.5 13.3332 16.3807 13.3332 15C13.3332 13.6193 14.4525 12.5 15.8332 12.5C17.2139 12.5 18.3332 13.6193 18.3332 15Z" stroke="#272D37" stroke-width="1.67" stroke-linecap="round"/>
</svg>
