<svg width="20" height="20" viewBox="0 0 20 20" fill="none" xmlns="http://www.w3.org/2000/svg">
<path d="M15.7568 8.51369L15.3777 9.25768L15.7568 8.51369ZM16.4852 9.24205L15.7412 9.62113L16.4852 9.24205ZM4.24351 8.51369L4.62259 9.25768L4.24351 8.51369ZM3.51515 9.24205L4.25914 9.62113L3.51515 9.24205ZM4.24351 16.4837L4.62259 15.7397L4.24351 16.4837ZM3.51515 15.7553L4.25914 15.3763L3.51515 15.7553ZM16.4852 15.7553L15.7412 15.3763L16.4852 15.7553ZM15.7568 16.4837L15.3777 15.7397L15.7568 16.4837ZM5.83183 16.6654C5.83183 17.1265 6.20567 17.5004 6.66683 17.5004C7.12799 17.5004 7.50183 17.1265 7.50183 16.6654H5.83183ZM7.50183 14.9987C7.50183 14.5375 7.12799 14.1637 6.66683 14.1637C6.20567 14.1637 5.83183 14.5375 5.83183 14.9987H7.50183ZM9.16516 16.6654C9.16516 17.1265 9.539 17.5004 10.0002 17.5004C10.4613 17.5004 10.8352 17.1265 10.8352 16.6654H9.16516ZM10.8352 14.9987C10.8352 14.5375 10.4613 14.1637 10.0002 14.1637C9.539 14.1637 9.16516 14.5375 9.16516 14.9987H10.8352ZM12.4985 16.6654C12.4985 17.1265 12.8723 17.5004 13.3335 17.5004C13.7947 17.5004 14.1685 17.1265 14.1685 16.6654H12.4985ZM14.1685 14.9987C14.1685 14.5375 13.7947 14.1637 13.3335 14.1637C12.8723 14.1637 12.4985 14.5375 12.4985 14.9987H14.1685ZM9.16516 8.33203C9.16516 8.79319 9.539 9.16703 10.0002 9.16703C10.4613 9.16703 10.8352 8.79319 10.8352 8.33203H9.16516ZM10.8352 3.33203C10.8352 2.87087 10.4613 2.49703 10.0002 2.49703C9.539 2.49703 9.16516 2.87087 9.16516 3.33203H10.8352ZM6.00016 9.16703H14.0002V7.49703H6.00016V9.16703ZM15.8318 10.9987V11.6654H17.5018V10.9987H15.8318ZM16.6668 10.8304H3.3335V12.5004H16.6668V10.8304ZM4.1685 11.6654V10.9987H2.4985V11.6654H4.1685ZM14.0002 9.16703C14.4807 9.16703 14.7908 9.16768 15.0268 9.18696C15.2531 9.20545 15.3368 9.23682 15.3777 9.25768L16.1359 7.7697C15.8203 7.6089 15.4924 7.54944 15.1628 7.52251C14.843 7.49638 14.4531 7.49703 14.0002 7.49703V9.16703ZM17.5018 10.9987C17.5018 10.5458 17.5025 10.1558 17.4763 9.83604C17.4494 9.50648 17.39 9.17856 17.2292 8.86297L15.7412 9.62113C15.762 9.66206 15.7934 9.74575 15.8119 9.97203C15.8312 10.2081 15.8318 10.5182 15.8318 10.9987H17.5018ZM15.3777 9.25768C15.5342 9.33741 15.6614 9.46464 15.7412 9.62113L17.2292 8.86297C16.9893 8.39225 16.6066 8.00954 16.1359 7.7697L15.3777 9.25768ZM6.00016 7.49703C5.54723 7.49703 5.15731 7.49638 4.8375 7.52251C4.50795 7.54944 4.18002 7.6089 3.86443 7.7697L4.62259 9.25768C4.66352 9.23682 4.74721 9.20545 4.9735 9.18696C5.20953 9.16768 5.51967 9.16703 6.00016 9.16703V7.49703ZM4.1685 10.9987C4.1685 10.5182 4.16915 10.2081 4.18843 9.97203C4.20692 9.74575 4.23829 9.66206 4.25914 9.62113L2.77116 8.86297C2.61036 9.17856 2.5509 9.50648 2.52398 9.83604C2.49785 10.1558 2.4985 10.5458 2.4985 10.9987H4.1685ZM3.86443 7.7697C3.39371 8.00954 3.011 8.39225 2.77116 8.86297L4.25914 9.62113C4.33888 9.46464 4.46611 9.33741 4.62259 9.25768L3.86443 7.7697ZM15.8318 11.6654V13.9987H17.5018V11.6654H15.8318ZM14.0002 15.8304H6.00016V17.5004H14.0002V15.8304ZM4.1685 13.9987V11.6654H2.4985V13.9987H4.1685ZM6.00016 15.8304C5.51967 15.8304 5.20953 15.8297 4.9735 15.8104C4.74721 15.7919 4.66352 15.7606 4.62259 15.7397L3.86443 17.2277C4.18002 17.3885 4.50795 17.448 4.8375 17.4749C5.15731 17.501 5.54723 17.5004 6.00016 17.5004V15.8304ZM2.4985 13.9987C2.4985 14.4516 2.49785 14.8415 2.52398 15.1614C2.5509 15.4909 2.61036 15.8188 2.77116 16.1344L4.25914 15.3763C4.23829 15.3353 4.20692 15.2516 4.18843 15.0254C4.16915 14.7893 4.1685 14.4792 4.1685 13.9987H2.4985ZM4.62259 15.7397C4.46611 15.66 4.33888 15.5328 4.25914 15.3763L2.77116 16.1344C3.011 16.6051 3.39371 16.9879 3.86443 17.2277L4.62259 15.7397ZM15.8318 13.9987C15.8318 14.4792 15.8312 14.7893 15.8119 15.0254C15.7934 15.2516 15.762 15.3353 15.7412 15.3763L17.2292 16.1344C17.39 15.8188 17.4494 15.4909 17.4763 15.1614C17.5025 14.8415 17.5018 14.4516 17.5018 13.9987H15.8318ZM14.0002 17.5004C14.4531 17.5004 14.843 17.501 15.1628 17.4749C15.4924 17.448 15.8203 17.3885 16.1359 17.2277L15.3777 15.7397C15.3368 15.7606 15.2531 15.7919 15.0268 15.8104C14.7908 15.8297 14.4807 15.8304 14.0002 15.8304V17.5004ZM15.7412 15.3763C15.6614 15.5328 15.5342 15.66 15.3777 15.7397L16.1359 17.2277C16.6066 16.9879 16.9893 16.6051 17.2292 16.1344L15.7412 15.3763ZM7.50183 16.6654V14.9987H5.83183V16.6654H7.50183ZM10.8352 16.6654V14.9987H9.16516V16.6654H10.8352ZM14.1685 16.6654V14.9987H12.4985V16.6654H14.1685ZM10.8352 8.33203V3.33203H9.16516V8.33203H10.8352Z" fill="#272D37"/>
</svg>
