<svg width="20" height="20" viewBox="0 0 20 20" fill="none" xmlns="http://www.w3.org/2000/svg">
<path d="M16.2527 15.0092L17.0628 14.8067L17.0628 14.8067L16.2527 15.0092ZM16.086 14.3426L15.276 14.5451L15.276 14.5451L16.086 14.3426ZM3.9144 14.3426L3.10433 14.1401L3.9144 14.3426ZM3.74773 15.0092L4.5578 15.2118L3.74773 15.0092ZM4.49475 13.3977L4.17132 12.6279L4.17132 12.6279L4.49475 13.3977ZM4.15048 13.6665L4.81887 14.167L4.15048 13.6665ZM15.85 13.6665L15.1816 14.167L15.1816 14.167L15.85 13.6665ZM15.5057 13.3977L15.8291 12.6279L15.8291 12.6279L15.5057 13.3977ZM16.0314 16.5454L15.5987 15.8312L16.0314 16.5454ZM16.3957 16.0787L17.1935 16.3253L17.1935 16.3253L16.3957 16.0787ZM3.96904 16.5454L4.40173 15.8312H4.40173L3.96904 16.5454ZM3.60469 16.0787L4.40246 15.8321H4.40246L3.60469 16.0787ZM9.40394 2.79744L9.03051 2.05059V2.05059L9.40394 2.79744ZM4.52612 5.23634L4.89955 5.98319H4.89955L4.52612 5.23634ZM3.92984 7.0252L3.18299 7.39862H3.18299L3.92984 7.0252ZM4.07476 7.31503L4.8216 6.94161L4.8216 6.94161L4.07476 7.31503ZM15.9257 7.31503L15.1788 6.94161L15.1788 6.94161L15.9257 7.31503ZM16.0706 7.0252L15.3238 6.65177L15.3238 6.65177L16.0706 7.0252ZM15.4743 5.23634L15.8477 4.4895V4.4895L15.4743 5.23634ZM10.5965 2.79744L10.9699 2.05059L10.5965 2.79744ZM16.3822 6.19898L17.2171 6.19264L16.3822 6.19898ZM16.2193 5.71038L15.5475 6.2063V6.2063L16.2193 5.71038ZM3.78114 5.71038L3.10936 5.21447L3.10936 5.21447L3.78114 5.71038ZM3.61828 6.19898L2.7833 6.19264L3.61828 6.19898ZM15.7727 7.48791L15.5005 6.69854L15.5005 6.69855L15.7727 7.48791ZM15.8506 7.4398L16.4348 8.03634L16.4348 8.03633L15.8506 7.4398ZM4.22771 7.48791L4.49998 6.69855H4.49998L4.22771 7.48791ZM4.14987 7.4398L3.5656 8.03634L3.56561 8.03634L4.14987 7.4398ZM9.84656 2.61195L9.69258 1.79127L9.84656 2.61195ZM10.1539 2.61195L10.3079 1.79127H10.3079L10.1539 2.61195ZM4.99855 12.4993C4.99855 12.9605 5.3724 13.3343 5.83355 13.3343C6.29471 13.3343 6.66855 12.9605 6.66855 12.4993H4.99855ZM6.66855 7.49929C6.66855 7.03814 6.29471 6.66429 5.83355 6.66429C5.3724 6.66429 4.99855 7.03814 4.99855 7.49929H6.66855ZM9.16522 12.4993C9.16522 12.9605 9.53906 13.3343 10.0002 13.3343C10.4614 13.3343 10.8352 12.9605 10.8352 12.4993H9.16522ZM10.8352 8.33263C10.8352 7.87147 10.4614 7.49763 10.0002 7.49763C9.53906 7.49763 9.16522 7.87147 9.16522 8.33263H10.8352ZM13.3319 12.4993C13.3319 12.9605 13.7057 13.3343 14.1669 13.3343C14.628 13.3343 15.0019 12.9605 15.0019 12.4993H13.3319ZM15.0019 8.33263C15.0019 7.87147 14.628 7.49763 14.1669 7.49763C13.7057 7.49763 13.3319 7.87147 13.3319 8.33263H15.0019ZM5.04126 17.501H14.9592V15.831H5.04126V17.501ZM17.0628 14.8067L16.8961 14.1401L15.276 14.5451L15.4426 15.2118L17.0628 14.8067ZM14.7925 12.4976H5.20792V14.1676H14.7925V12.4976ZM3.10433 14.1401L2.93766 14.8067L4.5578 15.2118L4.72447 14.5451L3.10433 14.1401ZM5.20792 12.4976C4.91323 12.4976 4.51921 12.4817 4.17132 12.6279L4.81818 14.1675C4.7797 14.1837 4.76521 14.1783 4.83006 14.1736C4.90541 14.1681 5.00989 14.1676 5.20792 14.1676V12.4976ZM4.72447 14.5451C4.7725 14.353 4.79833 14.2517 4.82189 14.18C4.84217 14.1182 4.84389 14.1336 4.81887 14.167L3.48209 13.166C3.25592 13.468 3.1758 13.8542 3.10433 14.1401L4.72447 14.5451ZM4.17132 12.6279C3.89782 12.7428 3.6599 12.9285 3.48209 13.166L4.81887 14.167L4.81818 14.1675L4.17132 12.6279ZM16.8961 14.1401C16.8246 13.8542 16.7445 13.468 16.5184 13.166L15.1816 14.167C15.1566 14.1336 15.1583 14.1182 15.1786 14.18C15.2021 14.2517 15.2279 14.353 15.276 14.5451L16.8961 14.1401ZM14.7925 14.1676C14.9906 14.1676 15.095 14.1681 15.1704 14.1736C15.2352 14.1783 15.2207 14.1837 15.1823 14.1675L15.8291 12.6279C15.4812 12.4817 15.0872 12.4976 14.7925 12.4976V14.1676ZM16.5184 13.166C16.3405 12.9285 16.1026 12.7428 15.8291 12.6279L15.1823 14.1675L15.1816 14.167L16.5184 13.166ZM14.9592 17.501C15.2349 17.501 15.4967 17.5017 15.7125 17.4826C15.9346 17.463 16.2052 17.4164 16.4641 17.2595L15.5987 15.8312C15.6585 15.795 15.6841 15.8086 15.5653 15.8191C15.4404 15.8302 15.2656 15.831 14.9592 15.831V17.501ZM15.4426 15.2118C15.5169 15.509 15.5586 15.6787 15.5782 15.8027C15.5968 15.9205 15.5773 15.899 15.598 15.8321L17.1935 16.3253C17.2829 16.036 17.2625 15.7622 17.2277 15.542C17.1939 15.328 17.1297 15.0742 17.0628 14.8067L15.4426 15.2118ZM16.4641 17.2595C16.8134 17.0479 17.0729 16.7155 17.1935 16.3253L15.598 15.8321C15.5981 15.8317 15.5984 15.8314 15.5987 15.8312L16.4641 17.2595ZM5.04126 15.831C4.73488 15.831 4.56009 15.8302 4.4351 15.8191C4.31633 15.8086 4.3419 15.795 4.40173 15.8312L3.53636 17.2595C3.79526 17.4164 4.06588 17.463 4.28793 17.4826C4.50375 17.5017 4.76553 17.501 5.04126 17.501V15.831ZM2.93766 14.8067C2.87079 15.0742 2.80655 15.328 2.77273 15.542C2.73794 15.7622 2.71754 16.036 2.80693 16.3253L4.40246 15.8321C4.42312 15.899 4.40365 15.9205 4.42226 15.8027C4.44185 15.6787 4.4835 15.509 4.5578 15.2118L2.93766 14.8067ZM4.40173 15.8312C4.40208 15.8314 4.40234 15.8317 4.40246 15.8321L2.80693 16.3253C2.92752 16.7155 3.18706 17.0479 3.53636 17.2595L4.40173 15.8312ZM4.3729 8.33429H15.6275V6.66429H4.3729V8.33429ZM9.03051 2.05059L4.1527 4.4895L4.89955 5.98319L9.77736 3.54428L9.03051 2.05059ZM3.18299 7.39862L3.32791 7.68846L4.8216 6.94161L4.67669 6.65177L3.18299 7.39862ZM16.6725 7.68846L16.8175 7.39862L15.3238 6.65177L15.1788 6.94161L16.6725 7.68846ZM15.8477 4.4895L10.9699 2.05059L10.2231 3.54428L15.1009 5.98319L15.8477 4.4895ZM16.8174 7.39862C16.9156 7.20223 17.0123 7.0103 17.08 6.84194C17.1513 6.6645 17.2191 6.4468 17.2171 6.19264L15.5472 6.20532C15.5468 6.15122 15.5631 6.13791 15.5304 6.21921C15.4941 6.30958 15.4343 6.43073 15.3238 6.65177L16.8174 7.39862ZM15.1009 5.98319C15.3219 6.09371 15.4425 6.15473 15.5258 6.20523C15.6007 6.25066 15.5796 6.24982 15.5475 6.2063L16.8911 5.21447C16.7401 5.00998 16.5553 4.87648 16.3918 4.77731C16.2366 4.68322 16.0441 4.58769 15.8477 4.4895L15.1009 5.98319ZM17.2171 6.19264C17.2145 5.84034 17.1003 5.49792 16.8911 5.21447L15.5475 6.2063C15.5473 6.20601 15.5472 6.20567 15.5472 6.20532L17.2171 6.19264ZM4.1527 4.4895C3.9563 4.58769 3.7638 4.68322 3.60865 4.77731C3.44514 4.87648 3.26031 5.00998 3.10936 5.21447L4.45293 6.2063C4.4208 6.24982 4.39974 6.25066 4.47465 6.20523C4.55793 6.15473 4.6785 6.09371 4.89955 5.98319L4.1527 4.4895ZM4.67669 6.65177C4.56616 6.43073 4.50631 6.30958 4.46999 6.21921C4.43732 6.13791 4.45367 6.15122 4.45325 6.20532L2.7833 6.19264C2.78137 6.4468 2.84914 6.6645 2.92044 6.84194C2.98811 7.0103 3.08479 7.20223 3.18299 7.39862L4.67669 6.65177ZM3.10936 5.21447C2.90012 5.49792 2.78598 5.84033 2.7833 6.19264L4.45325 6.20532C4.45325 6.20567 4.45314 6.20601 4.45293 6.2063L3.10936 5.21447ZM15.6275 8.33429C15.6418 8.33429 15.8481 8.34519 16.045 8.27727L15.5005 6.69855C15.5809 6.6708 15.6449 6.66567 15.6638 6.66449C15.6723 6.66396 15.6752 6.66408 15.6669 6.66418C15.6585 6.66428 15.6477 6.66429 15.6275 6.66429V8.33429ZM15.1788 6.94161C15.1698 6.95964 15.165 6.96932 15.1611 6.97677C15.1574 6.9841 15.1585 6.98147 15.1628 6.97415C15.1723 6.95771 15.2055 6.90279 15.2663 6.84326L16.4348 8.03633C16.5836 7.89059 16.6662 7.70121 16.6725 7.68845L15.1788 6.94161ZM16.045 8.27727C16.1912 8.22684 16.3244 8.14454 16.4348 8.03634L15.2663 6.84326C15.3327 6.77827 15.4126 6.72884 15.5005 6.69854L16.045 8.27727ZM4.3729 6.66429C4.35274 6.66429 4.34191 6.66428 4.33352 6.66418C4.32529 6.66408 4.32816 6.66396 4.33662 6.66449C4.35559 6.66567 4.41955 6.6708 4.49998 6.69855L3.95544 8.27727C4.15235 8.34519 4.35865 8.33429 4.3729 8.33429V6.66429ZM3.32791 7.68846C3.33428 7.7012 3.4168 7.89059 3.5656 8.03634L4.73414 6.84326C4.79492 6.90279 4.82811 6.95771 4.83765 6.97415C4.84191 6.98147 4.84309 6.9841 4.83931 6.97678C4.83547 6.96932 4.83062 6.95964 4.8216 6.94161L3.32791 7.68846ZM4.49998 6.69855C4.58779 6.72883 4.66777 6.77826 4.73413 6.84326L3.56561 8.03634C3.67609 8.14455 3.80925 8.22684 3.95544 8.27727L4.49998 6.69855ZM9.77736 3.54428C9.89432 3.48581 9.95345 3.45654 9.99738 3.43743C10.0333 3.42182 10.0263 3.42778 10.0005 3.43263L9.69258 1.79127C9.43602 1.8394 9.20586 1.96292 9.03051 2.05059L9.77736 3.54428ZM10.9699 2.05059C10.7946 1.96292 10.5644 1.8394 10.3079 1.79127L9.99991 3.43263C9.9741 3.42779 9.96718 3.42182 10.0031 3.43743C10.047 3.45654 10.1061 3.48581 10.2231 3.54428L10.9699 2.05059ZM10.0005 3.43263L9.99991 3.43263L10.3079 1.79127C10.1045 1.75312 9.8959 1.75312 9.69258 1.79127L10.0005 3.43263ZM6.66855 12.4993V7.49929H4.99855V12.4993H6.66855ZM10.8352 12.4993V8.33263H9.16522V12.4993H10.8352ZM15.0019 12.4993V8.33263H13.3319V12.4993H15.0019Z" fill="#272D37"/>
</svg>
