<svg width="20" height="20" viewBox="0 0 20 20" fill="none" xmlns="http://www.w3.org/2000/svg">
<path d="M13.3335 3.33464C13.3335 4.25511 11.0949 5.0013 8.3335 5.0013C5.57207 5.0013 3.3335 4.25511 3.3335 3.33464M13.3335 3.33464C13.3335 2.41416 11.0949 1.66797 8.3335 1.66797C5.57207 1.66797 3.3335 2.41416 3.3335 3.33464M13.3335 3.33464V6.66797M3.3335 3.33464V6.66797C3.3335 7.58844 5.57207 8.33464 8.3335 8.33464C11.0949 8.33464 13.3335 7.58844 13.3335 6.66797M16.6668 8.2398C16.6668 9.16027 14.4283 9.90647 11.6668 9.90647C8.90541 9.90647 6.66683 9.16027 6.66683 8.2398V11.5732M16.6668 8.2398C16.6668 7.51412 15.2755 6.89677 13.3335 6.66797M16.6668 8.2398V11.5732C16.6668 12.4936 14.4283 13.2398 11.6668 13.2398C8.90541 13.2398 6.66683 12.4936 6.66683 11.5732M3.3335 13.145C3.3335 14.0655 5.57207 14.8117 8.3335 14.8117C11.0949 14.8117 13.3335 14.0655 13.3335 13.145V16.4784C13.3335 17.3988 11.0949 18.145 8.3335 18.145C5.57207 18.145 3.3335 17.3988 3.3335 16.4784V13.145ZM3.3335 13.145C3.3335 12.4193 4.72484 11.802 6.66683 11.5732" stroke="#272D37" stroke-width="1.67"/>
</svg>
