<svg width="20" height="20" viewBox="0 0 20 20" fill="none" xmlns="http://www.w3.org/2000/svg">
<g clip-path="url(#clip0_4862_8177)">
<path d="M3.10854 18.7112L3.48762 17.9672L3.10854 18.7112ZM1.28764 16.8903L2.03163 16.5112L1.28764 16.8903ZM15.3794 16.8903L14.6354 16.5112L15.3794 16.8903ZM13.5585 18.7112L13.1794 17.9672L13.5585 18.7112ZM13.5585 4.6195L13.1794 5.36349L13.5585 4.6195ZM15.3794 6.4404L14.6354 6.81949L15.3794 6.4404ZM3.10854 4.6195L3.48762 5.36349L3.10854 4.6195ZM1.28764 6.4404L2.03163 6.81949L1.28764 6.4404ZM15.8335 14.997C15.3723 14.997 14.9985 15.3709 14.9985 15.832C14.9985 16.2932 15.3723 16.667 15.8335 16.667V14.997ZM3.33183 4.16536C3.33183 4.62652 3.70567 5.00036 4.16683 5.00036C4.62799 5.00036 5.00183 4.62652 5.00183 4.16536H3.33183ZM4.42276 13.5622C4.08963 13.8811 4.07809 14.4096 4.39698 14.7428C4.71587 15.0759 5.24443 15.0874 5.57756 14.7685L4.42276 13.5622ZM11.0894 14.7685C11.4226 15.0874 11.9511 15.0759 12.27 14.7428C12.5889 14.4096 12.5774 13.8811 12.2442 13.5622L11.0894 14.7685ZM7.50016 5.00036H9.16683V3.33036H7.50016V5.00036ZM14.9985 10.832V12.4987H16.6685V10.832H14.9985ZM9.16683 18.3304H7.50016V20.0004H9.16683V18.3304ZM1.6685 12.4987V10.832H-0.00150388V12.4987H1.6685ZM7.50016 18.3304C6.31961 18.3304 5.48441 18.3297 4.8315 18.2764C4.18834 18.2238 3.79594 18.1243 3.48762 17.9672L2.72945 19.4552C3.31243 19.7523 3.94907 19.8798 4.69551 19.9408C5.4322 20.001 6.34716 20.0004 7.50016 20.0004V18.3304ZM-0.00150388 12.4987C-0.00150388 13.6517 -0.00215328 14.5667 0.0580367 15.3034C0.119023 16.0498 0.246602 16.6864 0.543645 17.2694L2.03163 16.5112C1.87453 16.2029 1.77504 15.8105 1.72249 15.1674C1.66915 14.5144 1.6685 13.6793 1.6685 12.4987H-0.00150388ZM3.48762 17.9672C2.86072 17.6478 2.35104 17.1381 2.03163 16.5112L0.543645 17.2694C1.02317 18.2105 1.78833 18.9757 2.72945 19.4552L3.48762 17.9672ZM14.9985 12.4987C14.9985 13.6793 14.9978 14.5144 14.9445 15.1674C14.892 15.8105 14.7925 16.2029 14.6354 16.5112L16.1233 17.2694C16.4204 16.6864 16.548 16.0498 16.609 15.3034C16.6691 14.5667 16.6685 13.6517 16.6685 12.4987H14.9985ZM9.16683 20.0004C10.3198 20.0004 11.2348 20.001 11.9715 19.9408C12.7179 19.8798 13.3546 19.7523 13.9375 19.4552L13.1794 17.9672C12.8711 18.1243 12.4787 18.2238 11.8355 18.2764C11.1826 18.3297 10.3474 18.3304 9.16683 18.3304V20.0004ZM14.6354 16.5112C14.3159 17.1381 13.8063 17.6478 13.1794 17.9672L13.9375 19.4552C14.8787 18.9757 15.6438 18.2105 16.1233 17.2694L14.6354 16.5112ZM9.16683 5.00036C10.3474 5.00036 11.1826 5.00101 11.8355 5.05436C12.4787 5.10691 12.8711 5.2064 13.1794 5.36349L13.9375 3.87551C13.3546 3.57847 12.7179 3.45089 11.9715 3.3899C11.2348 3.32972 10.3198 3.33036 9.16683 3.33036V5.00036ZM16.6685 10.832C16.6685 9.67903 16.6691 8.76407 16.609 8.02738C16.548 7.28094 16.4204 6.6443 16.1233 6.06132L14.6354 6.81949C14.7925 7.1278 14.892 7.5202 14.9445 8.16337C14.9978 8.81628 14.9985 9.65148 14.9985 10.832H16.6685ZM13.1794 5.36349C13.8063 5.68291 14.3159 6.19259 14.6354 6.81949L16.1233 6.06132C15.6438 5.1202 14.8787 4.35504 13.9375 3.87551L13.1794 5.36349ZM7.50016 3.33036C6.34716 3.33036 5.4322 3.32972 4.69551 3.3899C3.94907 3.45089 3.31243 3.57847 2.72945 3.87551L3.48762 5.36349C3.79594 5.2064 4.18834 5.10691 4.8315 5.05436C5.48441 5.00101 6.31961 5.00036 7.50016 5.00036V3.33036ZM1.6685 10.832C1.6685 9.65148 1.66915 8.81628 1.72249 8.16337C1.77504 7.5202 1.87453 7.1278 2.03163 6.81949L0.543645 6.06132C0.246602 6.6443 0.119023 7.28094 0.0580367 8.02738C-0.00215328 8.76407 -0.00150388 9.67903 -0.00150388 10.832H1.6685ZM2.72945 3.87551C1.78833 4.35504 1.02317 5.1202 0.543645 6.06132L2.03163 6.81949C2.35104 6.19259 2.86072 5.68291 3.48762 5.36349L2.72945 3.87551ZM7.50016 1.66703H15.0002V-0.00296873H7.50016V1.66703ZM18.3318 4.9987V12.4987H20.0018V4.9987H18.3318ZM18.3318 12.4987C18.3318 13.8785 17.2133 14.997 15.8335 14.997V16.667C18.1356 16.667 20.0018 14.8008 20.0018 12.4987H18.3318ZM15.0002 1.66703C16.8402 1.66703 18.3318 3.15867 18.3318 4.9987H20.0018C20.0018 2.23635 17.7625 -0.00296873 15.0002 -0.00296873V1.66703ZM7.50016 -0.00296873C5.19806 -0.00296873 3.33183 1.86326 3.33183 4.16536H5.00183C5.00183 2.78557 6.12037 1.66703 7.50016 1.66703V-0.00296873ZM5.57756 14.7685C7.09562 13.3154 9.57137 13.3154 11.0894 14.7685L12.2442 13.5622C10.0804 11.4908 6.5866 11.4908 4.42276 13.5622L5.57756 14.7685ZM9.73432 10.4461C9.73432 11.1185 9.15415 11.7252 8.36084 11.7252V13.3952C10.007 13.3952 11.4043 12.1088 11.4043 10.4461H9.73432ZM8.36084 11.7252C7.56754 11.7252 6.98736 11.1185 6.98736 10.4461H5.31736C5.31736 12.1088 6.71473 13.3952 8.36084 13.3952V11.7252ZM6.98736 10.4461C6.98736 9.77369 7.56754 9.16703 8.36084 9.16703V7.49703C6.71473 7.49703 5.31736 8.78337 5.31736 10.4461H6.98736ZM8.36084 9.16703C9.15415 9.16703 9.73432 9.77369 9.73432 10.4461H11.4043C11.4043 8.78337 10.007 7.49703 8.36084 7.49703V9.16703Z" fill="#272D37"/>
</g>
<defs>
<clipPath id="clip0_4862_8177">
<rect width="20" height="20" fill="white"/>
</clipPath>
</defs>
</svg>
