<svg width="17" height="17" viewBox="0 0 17 17" fill="none" xmlns="http://www.w3.org/2000/svg">
<path d="M5.48371 6.12799C6.01366 7.23177 6.73609 8.26628 7.65101 9.18119C8.56592 10.0961 9.60042 10.8185 10.7042 11.3485C10.7991 11.3941 10.8466 11.4169 10.9067 11.4344C11.1202 11.4966 11.3823 11.4519 11.5631 11.3224C11.6139 11.286 11.6575 11.2425 11.7445 11.1555C12.0107 10.8893 12.1438 10.7562 12.2776 10.6691C12.7824 10.341 13.4331 10.341 13.9378 10.6691C14.0717 10.7562 14.2048 10.8893 14.471 11.1555L14.6193 11.3038C15.024 11.7085 15.2263 11.9108 15.3362 12.1281C15.5548 12.5603 15.5548 13.0706 15.3362 13.5028C15.2263 13.7201 15.024 13.9224 14.6193 14.3271L14.4993 14.4471C14.096 14.8504 13.8944 15.052 13.6203 15.206C13.3161 15.3769 12.8436 15.4997 12.4947 15.4987C12.1803 15.4978 11.9654 15.4368 11.5356 15.3148C9.22591 14.6592 7.04643 13.4223 5.22817 11.604C3.4099 9.78576 2.17298 7.60629 1.51742 5.29658C1.39543 4.8668 1.33444 4.65191 1.3335 4.33748C1.33246 3.98858 1.45533 3.51612 1.62621 3.21192C1.78021 2.93779 1.98184 2.73615 2.38511 2.33288L2.50514 2.21286C2.90979 1.8082 3.11212 1.60588 3.32941 1.49597C3.76157 1.27739 4.27192 1.27739 4.70408 1.49597C4.92138 1.60588 5.1237 1.8082 5.52836 2.21286L5.67673 2.36123C5.94293 2.62743 6.07603 2.76053 6.16305 2.89438C6.49122 3.39912 6.49122 4.04982 6.16305 4.55456C6.07603 4.6884 5.94293 4.8215 5.67674 5.0877C5.5897 5.17474 5.54618 5.21826 5.50975 5.26913C5.3803 5.44992 5.3356 5.71204 5.39783 5.92551C5.41534 5.98558 5.43813 6.03305 5.48371 6.12799Z" stroke="#272D37" stroke-width="1.67" stroke-linecap="round" stroke-linejoin="round"/>
</svg>
