<svg width="20" height="20" viewBox="0 0 20 20" fill="none" xmlns="http://www.w3.org/2000/svg">
<path d="M6.66655 3.33203H13.3332M9.99988 18.332V9.9987M6.98084 6.66536H13.0189C13.205 6.66536 13.3685 6.78869 13.4196 6.96756L14.9383 12.2832C14.9768 12.4178 14.9451 12.5626 14.854 12.6688L10.3162 17.9629C10.1499 18.157 9.84981 18.157 9.68352 17.9629L5.14573 12.6688C5.05466 12.5626 5.02301 12.4178 5.06145 12.2832L6.58021 6.96756C6.63131 6.78869 6.79481 6.66536 6.98084 6.66536ZM10.8332 9.9987C10.8332 10.4589 10.4601 10.832 9.99988 10.832C9.53964 10.832 9.16655 10.4589 9.16655 9.9987C9.16655 9.53846 9.53964 9.16536 9.99988 9.16536C10.4601 9.16536 10.8332 9.53846 10.8332 9.9987Z" stroke="#437EF7" stroke-width="1.67" stroke-linecap="round"/>
</svg>
