<svg width="21" height="20" viewBox="0 0 21 20" fill="none" xmlns="http://www.w3.org/2000/svg">
<path d="M8.0001 18.7505H6.1251V17.5005H8.0001V9.72922L5.80322 8.41109L6.44697 7.33984L8.64322 8.65734C8.8279 8.76886 8.98075 8.92606 9.08705 9.1138C9.19334 9.30153 9.24949 9.51348 9.2501 9.72922V17.5005C9.2501 17.832 9.1184 18.1499 8.88398 18.3844C8.64956 18.6188 8.33162 18.7505 8.0001 18.7505Z" fill="#1EA575"/>
<path d="M14.25 18.75H12.375C12.0435 18.75 11.7255 18.6183 11.4911 18.3839C11.2567 18.1495 11.125 17.8315 11.125 17.5V10.625H14.875C15.2242 10.6251 15.5696 10.552 15.8888 10.4104C16.208 10.2688 16.4941 10.062 16.7285 9.80313C16.9629 9.54429 17.1405 9.2392 17.2498 8.90754C17.3591 8.57588 17.3977 8.225 17.3631 7.8775C17.2793 7.24532 16.9656 6.66615 16.4819 6.25064C15.9981 5.83513 15.3782 5.6124 14.7406 5.625H13.7512L13.6406 5.13812C13.2825 3.56 11.7694 2.5 9.875 2.5C9.15969 2.50234 8.45988 2.70854 7.85758 3.09443C7.25528 3.48031 6.77547 4.0299 6.47437 4.67875L6.28125 5.09562L5.74188 5.02437C5.66186 5.01103 5.58107 5.00288 5.5 5C4.83696 5 4.20107 5.26339 3.73223 5.73223C3.26339 6.20107 3 6.83696 3 7.5C3 8.16304 3.26339 8.79893 3.73223 9.26777C4.20107 9.73661 4.83696 10 5.5 10V11.25C4.50544 11.25 3.55161 10.8549 2.84835 10.1517C2.14509 9.44839 1.75 8.49456 1.75 7.5C1.75 6.50544 2.14509 5.55161 2.84835 4.84835C3.55161 4.14509 4.50544 3.75 5.5 3.75L5.54938 3.75062C5.9892 2.99234 6.61997 2.36249 7.37889 1.92376C8.1378 1.48504 8.9984 1.25274 9.875 1.25C12.1744 1.25 14.0575 2.48625 14.72 4.375H14.7406C15.6886 4.36443 16.6072 4.70375 17.3206 5.32805C18.034 5.95234 18.4922 6.81777 18.6075 7.75875C18.6586 8.27963 18.6001 8.80543 18.4358 9.30235C18.2715 9.79926 18.005 10.2563 17.6534 10.644C17.3018 11.0317 16.873 11.3415 16.3945 11.5536C15.916 11.7656 15.3984 11.8751 14.875 11.875H12.375V17.5H14.25V18.75Z" fill="#1EA575"/>
</svg>
