<svg width="13" height="16" viewBox="0 0 13 16" fill="none" xmlns="http://www.w3.org/2000/svg">
<path d="M6.59852 7.70722C5.56736 7.70722 4.67445 7.32746 3.94488 6.5782C3.21532 5.82906 2.84548 4.91244 2.84548 3.85349C2.84548 2.7949 3.21532 1.87816 3.945 1.12878C4.67469 0.379758 5.56748 0 6.59852 0C7.62981 0 8.52248 0.379758 9.25204 1.1289C9.98161 1.87804 10.3516 2.79478 10.3516 3.85349C10.3516 4.91244 9.98161 5.82918 9.25192 6.57832C8.52224 7.32734 7.62945 7.70722 6.59852 7.70722Z" fill="#9EBBBD"/>
<path d="M0.0315027 12.3031C0.0525446 11.9913 0.0951042 11.6512 0.157754 11.2921C0.220998 10.9303 0.30243 10.5882 0.399912 10.2756C0.500604 9.9525 0.637553 9.63341 0.806838 9.32762C0.982543 9.01024 1.18892 8.73388 1.4205 8.50646C1.66266 8.26855 1.95914 8.07727 2.30199 7.93774C2.64365 7.79895 3.02229 7.72864 3.42731 7.72864C3.58637 7.72864 3.7402 7.79565 4.03728 7.99426C4.22012 8.1167 4.43398 8.2583 4.6727 8.41491C4.87681 8.54846 5.15333 8.67358 5.49487 8.78686C5.82809 8.89757 6.16642 8.95373 6.50036 8.95373C6.83429 8.95373 7.1725 8.89757 7.50608 8.78686C7.84727 8.6737 8.12378 8.54858 8.32766 8.41503C8.56411 8.25988 8.7781 8.11828 8.96367 7.99414C9.26039 7.79553 9.41434 7.72852 9.5734 7.72852C9.97855 7.72852 10.3571 7.79895 10.6986 7.93786C11.0412 8.07715 11.3378 8.26843 11.5802 8.50659C11.8117 8.73412 12.0182 9.01037 12.1936 9.32762C12.3628 9.63341 12.4998 9.95238 12.6006 10.2757C12.6979 10.5884 12.7794 10.9303 12.8426 11.2921C12.9053 11.6507 12.9478 11.9909 12.9689 12.3034C12.9895 12.6096 13 12.9273 13 13.2482C13 14.0834 12.7414 14.7596 12.2316 15.2582C11.728 15.7503 11.0617 15.9999 10.2514 15.9999H2.74862C1.93834 15.9999 1.27225 15.7504 0.768559 15.2582C0.258564 14.76 0 14.0837 0 13.2481C0.000119209 12.9257 0.0106983 12.6078 0.0315027 12.3031Z" fill="#9EBBBD"/>
</svg>
