<svg width="13" height="20" viewBox="0 0 13 20" fill="none" xmlns="http://www.w3.org/2000/svg">
<path fill-rule="evenodd" clip-rule="evenodd" d="M11.75 -0.00012207C12.1297 -0.00012207 12.4435 0.282032 12.4932 0.648107L12.5 0.749878V4.74988C12.5 5.12957 12.2178 5.44337 11.8518 5.49303L11.75 5.49988H8.75C8.63165 5.49988 8.53251 5.58211 8.5066 5.69256L8.5 5.74988V6.99988H11.75C12.2054 6.99988 12.5476 7.39932 12.495 7.83744L12.4776 7.93178L11.4776 11.9318C11.4034 12.2286 11.1581 12.4466 10.8628 12.4914L10.75 12.4999H8.5V18.7499C8.5 19.1296 8.21785 19.4434 7.85177 19.493L7.75 19.4999H3.75C3.3703 19.4999 3.05651 19.2177 3.00685 18.8516L3 18.7499V12.4999H0.75C0.370304 12.4999 0.056509 12.2177 0.00684662 11.8516L0 11.7499L0 7.74988C0 7.37018 0.282154 7.05639 0.648229 7.00672L0.75 6.99988H3V5.74988C3 2.64809 5.45602 0.119941 8.52944 0.00403001L8.75 -0.00012207L11.75 -0.00012207ZM11 1.49988H8.75C6.47183 1.49988 4.61231 3.29238 4.5049 5.54396L4.5 5.74988V7.74988C4.5 8.12957 4.21785 8.44337 3.85177 8.49303L3.75 8.49988H1.5V10.9999H3.75C4.1297 10.9999 4.44349 11.282 4.49315 11.6481L4.5 11.7499V17.9999H7V11.7499C7 11.3702 7.28215 11.0564 7.64823 11.0067L7.75 10.9999H10.164L10.789 8.49988H7.75C7.3703 8.49988 7.05651 8.21772 7.00685 7.85165L7 7.74988V5.74988C7 4.8317 7.70711 4.07869 8.60647 4.00568L8.75 3.99988H11V1.49988Z" fill="#212121"/>
</svg>
