<svg width="20" height="20" viewBox="0 0 20 20" fill="none" xmlns="http://www.w3.org/2000/svg">
<path fill-rule="evenodd" clip-rule="evenodd" d="M17.5 3.25045C17.5 1.45553 16.0449 0.000453105 14.25 0.000453105L14.0469 0.00250112C12.2942 0.068641 10.7454 1.38657 9.76013 3.45978L9.749 3.48245L9.62348 3.22395C8.59474 1.20957 7.01451 -0.0304033 5.23693 0.000566912C3.45507 0.000453105 2 1.45553 2 3.25045C2 3.89477 2.1875 4.4953 2.51091 5.00045H1.75C0.783502 5.00045 0 5.78395 0 6.75045V8.75045C0 9.71695 0.783502 10.5005 1.75 10.5005H2V16.7505L2.00502 16.918C2.0916 18.3587 3.28747 19.5005 4.75 19.5005H9.75H14.75L14.9175 19.4954C16.3583 19.4089 17.5 18.213 17.5 16.7505V10.5005H17.75C18.7165 10.5005 19.5 9.71695 19.5 8.75045V6.75045C19.5 5.78395 18.7165 5.00045 17.75 5.00045H16.9891C17.3125 4.4953 17.5 3.89477 17.5 3.25045ZM14.25 5.00045C15.2165 5.00045 16 4.21695 16 3.25045C16 2.28395 15.2165 1.50045 14.2369 1.50034C12.8647 1.47643 11.5079 2.80151 10.7494 5.00045H14.25ZM8.7506 5.00045C7.99196 2.80151 6.63379 1.47644 5.25 1.50045C4.2835 1.50045 3.5 2.28395 3.5 3.25045C3.5 4.16863 4.20711 4.92165 5.10647 4.99465L5.25 5.00045H8.7506ZM5.25 6.50045H1.75C1.61193 6.50045 1.5 6.61238 1.5 6.75045V8.75045C1.5 8.88852 1.61193 9.00045 1.75 9.00045H2.75H9V6.50045H5.25ZM3.5 16.7505V10.5005H9V18.0005H4.75L4.62219 17.994C3.99187 17.93 3.5 17.3977 3.5 16.7505ZM14.75 18.0005H10.5V10.5005H16V16.7505L15.9935 16.8783C15.9295 17.5086 15.3972 18.0005 14.75 18.0005ZM17.75 9.00045H16.75H10.5V6.50045H14.25H17.75C17.8881 6.50045 18 6.61238 18 6.75045V8.75045C18 8.88852 17.8881 9.00045 17.75 9.00045Z" fill="#212121"/>
</svg>
