<svg width="18" height="18" viewBox="0 0 18 18" fill="none" xmlns="http://www.w3.org/2000/svg">
<path fill-rule="evenodd" clip-rule="evenodd" d="M4.75 -0.00012207L12.75 -0.00012207C15.3734 -0.00012207 17.5 2.12653 17.5 4.74988V12.7499C17.5 15.3732 15.3734 17.4999 12.75 17.4999H4.75C2.12665 17.4999 0 15.3732 0 12.7499L0 4.74988C0 2.12653 2.12665 -0.00012207 4.75 -0.00012207ZM12.75 1.49988H4.75C2.95507 1.49988 1.5 2.95495 1.5 4.74988V12.7499C1.5 14.5448 2.95507 15.9999 4.75 15.9999H12.75C14.5449 15.9999 16 14.5448 16 12.7499V4.74988C16 2.95495 14.5449 1.49988 12.75 1.49988ZM5 8.74988C5 6.67881 6.67893 4.99988 8.75 4.99988C10.8211 4.99988 12.5 6.67881 12.5 8.74988C12.5 10.8209 10.8211 12.4999 8.75 12.4999C6.67893 12.4999 5 10.8209 5 8.74988ZM11 8.74988C11 7.50724 9.99264 6.49988 8.75 6.49988C7.50736 6.49988 6.5 7.50724 6.5 8.74988C6.5 9.99252 7.50736 10.9999 8.75 10.9999C9.99264 10.9999 11 9.99252 11 8.74988ZM13.9932 4.14811C13.9435 3.78203 13.6297 3.49988 13.25 3.49988C12.8358 3.49988 12.5 3.83566 12.5 4.25088L12.5068 4.35265C12.5565 4.71872 12.8703 5.00088 13.25 5.00088C13.6642 5.00088 14 4.66509 14 4.24988L13.9932 4.14811Z" fill="#212121"/>
</svg>
