<svg width="24" height="24" viewBox="0 0 24 24" fill="none" xmlns="http://www.w3.org/2000/svg">
<path fill-rule="evenodd" clip-rule="evenodd" d="M17.75 1.99988C18.1297 1.99988 18.4435 2.28203 18.4932 2.64811L18.5 2.74988V6.74988C18.5 7.12957 18.2178 7.44337 17.8518 7.49303L17.75 7.49988H14.75C14.6317 7.49988 14.5325 7.58211 14.5066 7.69256L14.5 7.74988V8.99988H17.75C18.2054 8.99988 18.5476 9.39932 18.495 9.83744L18.4776 9.93178L17.4776 13.9318C17.4034 14.2286 17.1581 14.4466 16.8628 14.4914L16.75 14.4999H14.5V20.7499C14.5 21.1296 14.2178 21.4434 13.8518 21.493L13.75 21.4999H9.75C9.3703 21.4999 9.05651 21.2177 9.00685 20.8516L9 20.7499V14.4999H6.75C6.3703 14.4999 6.05651 14.2177 6.00685 13.8516L6 13.7499V9.74988C6 9.37018 6.28215 9.05639 6.64823 9.00672L6.75 8.99988H9V7.74988C9 4.64809 11.456 2.11994 14.5294 2.00403L14.75 1.99988H17.75ZM17 3.49988H14.75C12.4718 3.49988 10.6123 5.29238 10.5049 7.54396L10.5 7.74988V9.74988C10.5 10.1296 10.2178 10.4434 9.85177 10.493L9.75 10.4999H7.5V12.9999H9.75C10.1297 12.9999 10.4435 13.282 10.4932 13.6481L10.5 13.7499V19.9999H13V13.7499C13 13.3702 13.2822 13.0564 13.6482 13.0067L13.75 12.9999H16.164L16.789 10.4999H13.75C13.3703 10.4999 13.0565 10.2177 13.0068 9.85165L13 9.74988V7.74988C13 6.8317 13.7071 6.07869 14.6065 6.00568L14.75 5.99988H17V3.49988Z" fill="#212121"/>
</svg>
