<svg width="1111" height="480" viewBox="0 0 1111 480" fill="none" xmlns="http://www.w3.org/2000/svg">
<rect width="1111" height="480" rx="15" fill="#E7816B"/>
<mask id="mask0_17_117" style="mask-type:luminance" maskUnits="userSpaceOnUse" x="0" y="0" width="1111" height="480">
<rect width="1111" height="480" rx="15" fill="white"/>
</mask>
<g mask="url(#mask0_17_117)">
<circle opacity="0.308943" cx="320" cy="320" r="320" transform="matrix(0 1 1 0 0 -160)" fill="url(#paint0_linear_17_117)"/>
</g>
<g clip-path="url(#clip0_17_117)">
<rect x="635" y="92" width="380" height="1" fill="white"/>
<path opacity="0.5" d="M659.835 62.5H661.575V73.525L653.91 65.95V73H652.17V61.975L659.835 69.55V62.5ZM664.788 70.855C664.788 71.085 664.843 71.28 664.953 71.44C665.063 71.6 665.213 71.725 665.403 71.815C665.603 71.895 665.828 71.935 666.078 71.935C666.398 71.935 666.693 71.87 666.963 71.74C667.233 71.61 667.448 71.42 667.608 71.17C667.768 70.92 667.848 70.62 667.848 70.27L668.088 71.17C668.088 71.61 667.958 71.98 667.698 72.28C667.448 72.57 667.128 72.79 666.738 72.94C666.358 73.08 665.968 73.15 665.568 73.15C665.138 73.15 664.738 73.065 664.368 72.895C663.998 72.725 663.703 72.475 663.483 72.145C663.263 71.815 663.153 71.415 663.153 70.945C663.153 70.495 663.258 70.11 663.468 69.79C663.688 69.46 663.998 69.205 664.398 69.025C664.798 68.845 665.283 68.755 665.853 68.755C666.313 68.755 666.708 68.805 667.038 68.905C667.378 69.005 667.658 69.125 667.878 69.265C668.098 69.395 668.253 69.515 668.343 69.625V70.45C668.033 70.23 667.703 70.07 667.353 69.97C667.003 69.87 666.633 69.82 666.243 69.82C665.903 69.82 665.623 69.865 665.403 69.955C665.193 70.035 665.038 70.15 664.938 70.3C664.838 70.45 664.788 70.635 664.788 70.855ZM664.278 67.9L663.618 66.76C663.938 66.57 664.343 66.385 664.833 66.205C665.323 66.025 665.888 65.935 666.528 65.935C667.098 65.935 667.598 66.02 668.028 66.19C668.468 66.36 668.813 66.605 669.063 66.925C669.313 67.235 669.438 67.62 669.438 68.08V73H667.848V68.395C667.848 68.185 667.813 68.01 667.743 67.87C667.673 67.72 667.568 67.6 667.428 67.51C667.298 67.42 667.143 67.355 666.963 67.315C666.783 67.275 666.588 67.255 666.378 67.255C666.048 67.255 665.743 67.295 665.463 67.375C665.183 67.455 664.938 67.545 664.728 67.645C664.528 67.745 664.378 67.83 664.278 67.9ZM681.197 68.62V73H679.577V68.8C679.577 68.45 679.537 68.165 679.457 67.945C679.377 67.715 679.252 67.545 679.082 67.435C678.912 67.315 678.697 67.255 678.437 67.255C678.157 67.255 677.912 67.315 677.702 67.435C677.502 67.555 677.342 67.73 677.222 67.96C677.112 68.19 677.057 68.47 677.057 68.8V73H675.422V68.8C675.422 68.45 675.382 68.165 675.302 67.945C675.222 67.715 675.097 67.545 674.927 67.435C674.757 67.315 674.542 67.255 674.282 67.255C674.002 67.255 673.757 67.315 673.547 67.435C673.347 67.555 673.192 67.73 673.082 67.96C672.972 68.19 672.917 68.47 672.917 68.8V73H671.327V66.1H672.917V67.105C673.057 66.845 673.217 66.63 673.397 66.46C673.587 66.29 673.802 66.165 674.042 66.085C674.292 65.995 674.562 65.95 674.852 65.95C675.192 65.95 675.492 66 675.752 66.1C676.012 66.19 676.232 66.325 676.412 66.505C676.602 66.685 676.747 66.91 676.847 67.18C677.087 66.78 677.392 66.475 677.762 66.265C678.132 66.055 678.547 65.95 679.007 65.95C679.507 65.95 679.917 66.055 680.237 66.265C680.557 66.475 680.797 66.78 680.957 67.18C681.117 67.57 681.197 68.05 681.197 68.62ZM686.265 73.15C685.555 73.15 684.935 73 684.405 72.7C683.875 72.4 683.465 71.98 683.175 71.44C682.885 70.9 682.74 70.27 682.74 69.55C682.74 69.01 682.825 68.52 682.995 68.08C683.165 67.63 683.405 67.25 683.715 66.94C684.035 66.62 684.415 66.375 684.855 66.205C685.295 66.035 685.79 65.95 686.34 65.95C687.07 65.95 687.69 66.09 688.2 66.37C688.71 66.65 689.1 67.055 689.37 67.585C689.65 68.105 689.79 68.735 689.79 69.475C689.79 69.565 689.785 69.655 689.775 69.745C689.775 69.825 689.775 69.885 689.775 69.925H683.7V68.8H688.38L687.87 69.49C687.91 69.43 687.945 69.35 687.975 69.25C688.015 69.15 688.035 69.065 688.035 68.995C688.035 68.625 687.96 68.305 687.81 68.035C687.67 67.765 687.47 67.555 687.21 67.405C686.96 67.255 686.665 67.18 686.325 67.18C686.015 67.18 685.74 67.23 685.5 67.33C685.27 67.43 685.07 67.58 684.9 67.78C684.74 67.97 684.615 68.21 684.525 68.5C684.435 68.78 684.39 69.11 684.39 69.49C684.39 69.98 684.465 70.4 684.615 70.75C684.765 71.09 684.985 71.355 685.275 71.545C685.565 71.725 685.92 71.815 686.34 71.815C686.78 71.815 687.165 71.725 687.495 71.545C687.825 71.365 688.1 71.09 688.32 70.72L689.73 71.275C689.37 71.895 688.9 72.365 688.32 72.685C687.75 72.995 687.065 73.15 686.265 73.15Z" fill="white"/>
</g>
<g clip-path="url(#clip1_17_117)">
<rect x="635" y="155" width="380" height="1" fill="white"/>
<path opacity="0.5" d="M653.265 136V134.44H658.56V136H653.265ZM653.265 127.06V125.5H658.56V127.06H653.265ZM653.265 131.14V129.61H658.26V131.14H653.265ZM652.17 125.5H653.91V136H652.17V125.5ZM670.474 131.62V136H668.854V131.8C668.854 131.45 668.814 131.165 668.734 130.945C668.654 130.715 668.529 130.545 668.359 130.435C668.189 130.315 667.974 130.255 667.714 130.255C667.434 130.255 667.189 130.315 666.979 130.435C666.779 130.555 666.619 130.73 666.499 130.96C666.389 131.19 666.334 131.47 666.334 131.8V136H664.699V131.8C664.699 131.45 664.659 131.165 664.579 130.945C664.499 130.715 664.374 130.545 664.204 130.435C664.034 130.315 663.819 130.255 663.559 130.255C663.279 130.255 663.034 130.315 662.824 130.435C662.624 130.555 662.469 130.73 662.359 130.96C662.249 131.19 662.194 131.47 662.194 131.8V136H660.604V129.1H662.194V130.105C662.334 129.845 662.494 129.63 662.674 129.46C662.864 129.29 663.079 129.165 663.319 129.085C663.569 128.995 663.839 128.95 664.129 128.95C664.469 128.95 664.769 129 665.029 129.1C665.289 129.19 665.509 129.325 665.689 129.505C665.879 129.685 666.024 129.91 666.124 130.18C666.364 129.78 666.669 129.475 667.039 129.265C667.409 129.055 667.824 128.95 668.284 128.95C668.784 128.95 669.194 129.055 669.514 129.265C669.834 129.475 670.074 129.78 670.234 130.18C670.394 130.57 670.474 131.05 670.474 131.62ZM673.563 133.855C673.563 134.085 673.618 134.28 673.728 134.44C673.838 134.6 673.988 134.725 674.178 134.815C674.378 134.895 674.603 134.935 674.853 134.935C675.173 134.935 675.468 134.87 675.738 134.74C676.008 134.61 676.223 134.42 676.383 134.17C676.543 133.92 676.623 133.62 676.623 133.27L676.863 134.17C676.863 134.61 676.733 134.98 676.473 135.28C676.223 135.57 675.903 135.79 675.513 135.94C675.133 136.08 674.743 136.15 674.343 136.15C673.913 136.15 673.513 136.065 673.143 135.895C672.773 135.725 672.478 135.475 672.258 135.145C672.038 134.815 671.928 134.415 671.928 133.945C671.928 133.495 672.033 133.11 672.243 132.79C672.463 132.46 672.773 132.205 673.173 132.025C673.573 131.845 674.058 131.755 674.628 131.755C675.088 131.755 675.483 131.805 675.813 131.905C676.153 132.005 676.433 132.125 676.653 132.265C676.873 132.395 677.028 132.515 677.118 132.625V133.45C676.808 133.23 676.478 133.07 676.128 132.97C675.778 132.87 675.408 132.82 675.018 132.82C674.678 132.82 674.398 132.865 674.178 132.955C673.968 133.035 673.813 133.15 673.713 133.3C673.613 133.45 673.563 133.635 673.563 133.855ZM673.053 130.9L672.393 129.76C672.713 129.57 673.118 129.385 673.608 129.205C674.098 129.025 674.663 128.935 675.303 128.935C675.873 128.935 676.373 129.02 676.803 129.19C677.243 129.36 677.588 129.605 677.838 129.925C678.088 130.235 678.213 130.62 678.213 131.08V136H676.623V131.395C676.623 131.185 676.588 131.01 676.518 130.87C676.448 130.72 676.343 130.6 676.203 130.51C676.073 130.42 675.918 130.355 675.738 130.315C675.558 130.275 675.363 130.255 675.153 130.255C674.823 130.255 674.518 130.295 674.238 130.375C673.958 130.455 673.713 130.545 673.503 130.645C673.303 130.745 673.153 130.83 673.053 130.9ZM680.041 126.355C680.041 126.075 680.141 125.84 680.341 125.65C680.541 125.46 680.781 125.365 681.061 125.365C681.351 125.365 681.591 125.46 681.781 125.65C681.981 125.84 682.081 126.075 682.081 126.355C682.081 126.635 681.981 126.87 681.781 127.06C681.591 127.25 681.351 127.345 681.061 127.345C680.781 127.345 680.541 127.25 680.341 127.06C680.141 126.87 680.041 126.635 680.041 126.355ZM680.266 129.1H681.856V136H680.266V129.1ZM684.086 124.3H685.706V136H684.086V124.3ZM693.669 133.3L694.014 131.8H698.874L699.219 133.3H693.669ZM696.414 128.47L694.764 132.325L694.734 132.715L693.279 136H691.284L696.414 124.915L701.544 136H699.549L698.124 132.805L698.079 132.37L696.414 128.47ZM707.821 124.3H709.456V136H707.821V124.3ZM702.106 132.55C702.106 131.79 702.261 131.145 702.571 130.615C702.881 130.075 703.291 129.665 703.801 129.385C704.311 129.095 704.866 128.95 705.466 128.95C705.896 128.95 706.291 129.035 706.651 129.205C707.011 129.365 707.321 129.6 707.581 129.91C707.841 130.22 708.041 130.6 708.181 131.05C708.331 131.49 708.406 131.99 708.406 132.55C708.406 133.11 708.331 133.615 708.181 134.065C708.041 134.505 707.841 134.88 707.581 135.19C707.321 135.5 707.011 135.74 706.651 135.91C706.291 136.07 705.896 136.15 705.466 136.15C704.866 136.15 704.311 136.01 703.801 135.73C703.291 135.44 702.881 135.025 702.571 134.485C702.261 133.945 702.106 133.3 702.106 132.55ZM703.786 132.55C703.786 133.01 703.881 133.405 704.071 133.735C704.261 134.055 704.511 134.305 704.821 134.485C705.141 134.655 705.486 134.74 705.856 134.74C706.086 134.74 706.316 134.695 706.546 134.605C706.786 134.505 707.001 134.365 707.191 134.185C707.381 133.995 707.531 133.765 707.641 133.495C707.761 133.215 707.821 132.9 707.821 132.55C707.821 132.2 707.761 131.89 707.641 131.62C707.531 131.34 707.381 131.11 707.191 130.93C707.001 130.74 706.786 130.6 706.546 130.51C706.316 130.41 706.086 130.36 705.856 130.36C705.486 130.36 705.141 130.45 704.821 130.63C704.511 130.8 704.261 131.05 704.071 131.38C703.881 131.7 703.786 132.09 703.786 132.55ZM716.639 124.3H718.274V136H716.639V124.3ZM710.924 132.55C710.924 131.79 711.079 131.145 711.389 130.615C711.699 130.075 712.109 129.665 712.619 129.385C713.129 129.095 713.684 128.95 714.284 128.95C714.714 128.95 715.109 129.035 715.469 129.205C715.829 129.365 716.139 129.6 716.399 129.91C716.659 130.22 716.859 130.6 716.999 131.05C717.149 131.49 717.224 131.99 717.224 132.55C717.224 133.11 717.149 133.615 716.999 134.065C716.859 134.505 716.659 134.88 716.399 135.19C716.139 135.5 715.829 135.74 715.469 135.91C715.109 136.07 714.714 136.15 714.284 136.15C713.684 136.15 713.129 136.01 712.619 135.73C712.109 135.44 711.699 135.025 711.389 134.485C711.079 133.945 710.924 133.3 710.924 132.55ZM712.604 132.55C712.604 133.01 712.699 133.405 712.889 133.735C713.079 134.055 713.329 134.305 713.639 134.485C713.959 134.655 714.304 134.74 714.674 134.74C714.904 134.74 715.134 134.695 715.364 134.605C715.604 134.505 715.819 134.365 716.009 134.185C716.199 133.995 716.349 133.765 716.459 133.495C716.579 133.215 716.639 132.9 716.639 132.55C716.639 132.2 716.579 131.89 716.459 131.62C716.349 131.34 716.199 131.11 716.009 130.93C715.819 130.74 715.604 130.6 715.364 130.51C715.134 130.41 714.904 130.36 714.674 130.36C714.304 130.36 713.959 130.45 713.639 130.63C713.329 130.8 713.079 131.05 712.889 131.38C712.699 131.7 712.604 132.09 712.604 132.55ZM721.872 129.1V136H720.267V129.1H721.872ZM723.927 130.84C723.777 130.72 723.637 130.63 723.507 130.57C723.377 130.5 723.212 130.465 723.012 130.465C722.742 130.465 722.522 130.535 722.352 130.675C722.192 130.805 722.072 130.995 721.992 131.245C721.912 131.495 721.872 131.785 721.872 132.115L721.332 131.8C721.332 131.25 721.432 130.765 721.632 130.345C721.842 129.915 722.107 129.575 722.427 129.325C722.757 129.075 723.097 128.95 723.447 128.95C723.697 128.95 723.932 128.99 724.152 129.07C724.372 129.15 724.562 129.28 724.722 129.46L723.927 130.84ZM728.599 136.15C727.889 136.15 727.269 136 726.739 135.7C726.209 135.4 725.799 134.98 725.509 134.44C725.219 133.9 725.074 133.27 725.074 132.55C725.074 132.01 725.159 131.52 725.329 131.08C725.499 130.63 725.739 130.25 726.049 129.94C726.369 129.62 726.749 129.375 727.189 129.205C727.629 129.035 728.124 128.95 728.674 128.95C729.404 128.95 730.024 129.09 730.534 129.37C731.044 129.65 731.434 130.055 731.704 130.585C731.984 131.105 732.124 131.735 732.124 132.475C732.124 132.565 732.119 132.655 732.109 132.745C732.109 132.825 732.109 132.885 732.109 132.925H726.034V131.8H730.714L730.204 132.49C730.244 132.43 730.279 132.35 730.309 132.25C730.349 132.15 730.369 132.065 730.369 131.995C730.369 131.625 730.294 131.305 730.144 131.035C730.004 130.765 729.804 130.555 729.544 130.405C729.294 130.255 728.999 130.18 728.659 130.18C728.349 130.18 728.074 130.23 727.834 130.33C727.604 130.43 727.404 130.58 727.234 130.78C727.074 130.97 726.949 131.21 726.859 131.5C726.769 131.78 726.724 132.11 726.724 132.49C726.724 132.98 726.799 133.4 726.949 133.75C727.099 134.09 727.319 134.355 727.609 134.545C727.899 134.725 728.254 134.815 728.674 134.815C729.114 134.815 729.499 134.725 729.829 134.545C730.159 134.365 730.434 134.09 730.654 133.72L732.064 134.275C731.704 134.895 731.234 135.365 730.654 135.685C730.084 135.995 729.399 136.15 728.599 136.15ZM733.986 133.735C734.216 133.985 734.441 134.195 734.661 134.365C734.881 134.525 735.106 134.65 735.336 134.74C735.566 134.83 735.796 134.875 736.026 134.875C736.316 134.875 736.541 134.81 736.701 134.68C736.871 134.54 736.956 134.36 736.956 134.14C736.956 133.94 736.891 133.77 736.761 133.63C736.631 133.49 736.451 133.365 736.221 133.255C735.991 133.145 735.721 133.035 735.411 132.925C735.101 132.805 734.791 132.665 734.481 132.505C734.181 132.335 733.931 132.12 733.731 131.86C733.541 131.59 733.446 131.245 733.446 130.825C733.446 130.405 733.556 130.06 733.776 129.79C733.996 129.51 734.286 129.3 734.646 129.16C735.006 129.02 735.396 128.95 735.816 128.95C736.196 128.95 736.551 129.005 736.881 129.115C737.211 129.215 737.511 129.36 737.781 129.55C738.061 129.73 738.296 129.935 738.486 130.165L737.586 131.125C737.366 130.865 737.091 130.65 736.761 130.48C736.441 130.3 736.111 130.21 735.771 130.21C735.541 130.21 735.351 130.26 735.201 130.36C735.051 130.46 734.976 130.605 734.976 130.795C734.976 130.965 735.041 131.115 735.171 131.245C735.301 131.365 735.481 131.475 735.711 131.575C735.941 131.675 736.196 131.78 736.476 131.89C736.856 132.04 737.206 132.205 737.526 132.385C737.846 132.555 738.101 132.77 738.291 133.03C738.491 133.29 738.591 133.63 738.591 134.05C738.591 134.48 738.491 134.86 738.291 135.19C738.091 135.51 737.806 135.76 737.436 135.94C737.066 136.12 736.631 136.21 736.131 136.21C735.661 136.21 735.226 136.14 734.826 136C734.436 135.85 734.091 135.66 733.791 135.43C733.491 135.2 733.241 134.95 733.041 134.68L733.986 133.735ZM740.343 133.735C740.573 133.985 740.798 134.195 741.018 134.365C741.238 134.525 741.463 134.65 741.693 134.74C741.923 134.83 742.153 134.875 742.383 134.875C742.673 134.875 742.898 134.81 743.058 134.68C743.228 134.54 743.313 134.36 743.313 134.14C743.313 133.94 743.248 133.77 743.118 133.63C742.988 133.49 742.808 133.365 742.578 133.255C742.348 133.145 742.078 133.035 741.768 132.925C741.458 132.805 741.148 132.665 740.838 132.505C740.538 132.335 740.288 132.12 740.088 131.86C739.898 131.59 739.803 131.245 739.803 130.825C739.803 130.405 739.913 130.06 740.133 129.79C740.353 129.51 740.643 129.3 741.003 129.16C741.363 129.02 741.753 128.95 742.173 128.95C742.553 128.95 742.908 129.005 743.238 129.115C743.568 129.215 743.868 129.36 744.138 129.55C744.418 129.73 744.653 129.935 744.843 130.165L743.943 131.125C743.723 130.865 743.448 130.65 743.118 130.48C742.798 130.3 742.468 130.21 742.128 130.21C741.898 130.21 741.708 130.26 741.558 130.36C741.408 130.46 741.333 130.605 741.333 130.795C741.333 130.965 741.398 131.115 741.528 131.245C741.658 131.365 741.838 131.475 742.068 131.575C742.298 131.675 742.553 131.78 742.833 131.89C743.213 132.04 743.563 132.205 743.883 132.385C744.203 132.555 744.458 132.77 744.648 133.03C744.848 133.29 744.948 133.63 744.948 134.05C744.948 134.48 744.848 134.86 744.648 135.19C744.448 135.51 744.163 135.76 743.793 135.94C743.423 136.12 742.988 136.21 742.488 136.21C742.018 136.21 741.583 136.14 741.183 136C740.793 135.85 740.448 135.66 740.148 135.43C739.848 135.2 739.598 134.95 739.398 134.68L740.343 133.735Z" fill="white"/>
</g>
<g clip-path="url(#clip2_17_117)">
<rect x="635" y="218" width="380" height="1" fill="white"/>
<path opacity="0.5" d="M652.17 188.5H653.94V199H652.17V188.5ZM653.22 190.06V188.5H655.335C656.105 188.5 656.77 188.635 657.33 188.905C657.89 189.165 658.325 189.54 658.635 190.03C658.945 190.52 659.1 191.1 659.1 191.77C659.1 192.44 658.945 193.02 658.635 193.51C658.325 193.99 657.89 194.365 657.33 194.635C656.77 194.895 656.105 195.025 655.335 195.025H653.22V193.465H655.335C655.745 193.465 656.1 193.405 656.4 193.285C656.7 193.155 656.935 192.965 657.105 192.715C657.275 192.455 657.36 192.14 657.36 191.77C657.36 191.39 657.275 191.075 657.105 190.825C656.935 190.575 656.7 190.385 656.4 190.255C656.1 190.125 655.745 190.06 655.335 190.06H653.22ZM662.327 187.3V199H660.707V187.3H662.327ZM665.147 194.8C665.147 194.46 665.102 194.18 665.012 193.96C664.922 193.73 664.782 193.555 664.592 193.435C664.412 193.315 664.172 193.255 663.872 193.255C663.572 193.255 663.302 193.32 663.062 193.45C662.832 193.58 662.652 193.76 662.522 193.99C662.392 194.22 662.327 194.49 662.327 194.8H661.937C661.937 194.25 662.037 193.76 662.237 193.33C662.437 192.89 662.722 192.545 663.092 192.295C663.462 192.035 663.902 191.905 664.412 191.905C664.932 191.905 665.367 192.005 665.717 192.205C666.067 192.405 666.332 192.705 666.512 193.105C666.692 193.495 666.782 193.985 666.782 194.575V199H665.147V194.8ZM668.312 195.55C668.312 194.84 668.472 194.215 668.792 193.675C669.122 193.135 669.567 192.715 670.127 192.415C670.697 192.105 671.332 191.95 672.032 191.95C672.742 191.95 673.377 192.105 673.937 192.415C674.497 192.715 674.937 193.135 675.257 193.675C675.587 194.215 675.752 194.84 675.752 195.55C675.752 196.25 675.587 196.875 675.257 197.425C674.937 197.965 674.497 198.39 673.937 198.7C673.377 199 672.742 199.15 672.032 199.15C671.332 199.15 670.697 199 670.127 198.7C669.567 198.39 669.122 197.965 668.792 197.425C668.472 196.875 668.312 196.25 668.312 195.55ZM669.977 195.55C669.977 195.98 670.067 196.36 670.247 196.69C670.427 197.01 670.672 197.265 670.982 197.455C671.292 197.635 671.642 197.725 672.032 197.725C672.422 197.725 672.772 197.635 673.082 197.455C673.392 197.265 673.637 197.01 673.817 196.69C673.997 196.36 674.087 195.98 674.087 195.55C674.087 195.12 673.997 194.745 673.817 194.425C673.637 194.095 673.392 193.84 673.082 193.66C672.772 193.47 672.422 193.375 672.032 193.375C671.642 193.375 671.292 193.47 670.982 193.66C670.672 193.84 670.427 194.095 670.247 194.425C670.067 194.745 669.977 195.12 669.977 195.55ZM681.729 194.8C681.729 194.46 681.684 194.18 681.594 193.96C681.504 193.73 681.364 193.555 681.174 193.435C680.984 193.315 680.744 193.255 680.454 193.255C680.154 193.255 679.884 193.32 679.644 193.45C679.414 193.58 679.234 193.76 679.104 193.99C678.974 194.22 678.909 194.49 678.909 194.8V199H677.289V192.1H678.909V193.165C679.129 192.755 679.414 192.45 679.764 192.25C680.114 192.05 680.524 191.95 680.994 191.95C681.514 191.95 681.949 192.06 682.299 192.28C682.659 192.49 682.929 192.795 683.109 193.195C683.299 193.585 683.394 194.06 683.394 194.62V199H681.729V194.8ZM688.463 199.15C687.753 199.15 687.133 199 686.603 198.7C686.073 198.4 685.663 197.98 685.373 197.44C685.083 196.9 684.938 196.27 684.938 195.55C684.938 195.01 685.023 194.52 685.193 194.08C685.363 193.63 685.603 193.25 685.913 192.94C686.233 192.62 686.613 192.375 687.053 192.205C687.493 192.035 687.988 191.95 688.538 191.95C689.268 191.95 689.888 192.09 690.398 192.37C690.908 192.65 691.298 193.055 691.568 193.585C691.848 194.105 691.988 194.735 691.988 195.475C691.988 195.565 691.983 195.655 691.973 195.745C691.973 195.825 691.973 195.885 691.973 195.925H685.898V194.8H690.578L690.068 195.49C690.108 195.43 690.143 195.35 690.173 195.25C690.213 195.15 690.233 195.065 690.233 194.995C690.233 194.625 690.158 194.305 690.008 194.035C689.868 193.765 689.668 193.555 689.408 193.405C689.158 193.255 688.863 193.18 688.523 193.18C688.213 193.18 687.938 193.23 687.698 193.33C687.468 193.43 687.268 193.58 687.098 193.78C686.938 193.97 686.813 194.21 686.723 194.5C686.633 194.78 686.588 195.11 686.588 195.49C686.588 195.98 686.663 196.4 686.813 196.75C686.963 197.09 687.183 197.355 687.473 197.545C687.763 197.725 688.118 197.815 688.538 197.815C688.978 197.815 689.363 197.725 689.693 197.545C690.023 197.365 690.298 197.09 690.518 196.72L691.928 197.275C691.568 197.895 691.098 198.365 690.518 198.685C689.948 198.995 689.263 199.15 688.463 199.15Z" fill="white"/>
</g>
<g clip-path="url(#clip3_17_117)">
<rect x="635" y="345" width="380" height="1" fill="white"/>
<path opacity="0.5" d="M657.945 251.5H659.97L656.415 257.575V262H654.6V257.59L651.045 251.5H653.07L655.5 256L657.945 251.5ZM659.01 258.55C659.01 257.84 659.17 257.215 659.49 256.675C659.82 256.135 660.265 255.715 660.825 255.415C661.395 255.105 662.03 254.95 662.73 254.95C663.44 254.95 664.075 255.105 664.635 255.415C665.195 255.715 665.635 256.135 665.955 256.675C666.285 257.215 666.45 257.84 666.45 258.55C666.45 259.25 666.285 259.875 665.955 260.425C665.635 260.965 665.195 261.39 664.635 261.7C664.075 262 663.44 262.15 662.73 262.15C662.03 262.15 661.395 262 660.825 261.7C660.265 261.39 659.82 260.965 659.49 260.425C659.17 259.875 659.01 259.25 659.01 258.55ZM660.675 258.55C660.675 258.98 660.765 259.36 660.945 259.69C661.125 260.01 661.37 260.265 661.68 260.455C661.99 260.635 662.34 260.725 662.73 260.725C663.12 260.725 663.47 260.635 663.78 260.455C664.09 260.265 664.335 260.01 664.515 259.69C664.695 259.36 664.785 258.98 664.785 258.55C664.785 258.12 664.695 257.745 664.515 257.425C664.335 257.095 664.09 256.84 663.78 256.66C663.47 256.47 663.12 256.375 662.73 256.375C662.34 256.375 661.99 256.47 661.68 256.66C661.37 256.84 661.125 257.095 660.945 257.425C660.765 257.745 660.675 258.12 660.675 258.55ZM669.652 259.3C669.652 259.62 669.697 259.9 669.787 260.14C669.877 260.37 670.017 260.545 670.207 260.665C670.397 260.785 670.637 260.845 670.927 260.845C671.237 260.845 671.507 260.78 671.737 260.65C671.967 260.52 672.147 260.34 672.277 260.11C672.407 259.88 672.472 259.61 672.472 259.3V255.1H674.092V262H672.472V260.935C672.252 261.335 671.967 261.64 671.617 261.85C671.277 262.05 670.867 262.15 670.387 262.15C669.877 262.15 669.442 262.045 669.082 261.835C668.722 261.615 668.447 261.305 668.257 260.905C668.077 260.505 667.987 260.03 667.987 259.48V255.1H669.652V259.3ZM677.766 255.1V262H676.161V255.1H677.766ZM679.821 256.84C679.671 256.72 679.531 256.63 679.401 256.57C679.271 256.5 679.106 256.465 678.906 256.465C678.636 256.465 678.416 256.535 678.246 256.675C678.086 256.805 677.966 256.995 677.886 257.245C677.806 257.495 677.766 257.785 677.766 258.115L677.226 257.8C677.226 257.25 677.326 256.765 677.526 256.345C677.736 255.915 678.001 255.575 678.321 255.325C678.651 255.075 678.991 254.95 679.341 254.95C679.591 254.95 679.826 254.99 680.046 255.07C680.266 255.15 680.456 255.28 680.616 255.46L679.821 256.84ZM688.295 255.61L687.575 262H685.745L687.185 250.975L691.49 258.1L695.81 250.975L697.25 262H695.42L694.7 255.61L691.49 261.025L688.295 255.61ZM701.837 262.15C701.127 262.15 700.507 262 699.977 261.7C699.447 261.4 699.037 260.98 698.747 260.44C698.457 259.9 698.312 259.27 698.312 258.55C698.312 258.01 698.397 257.52 698.567 257.08C698.737 256.63 698.977 256.25 699.287 255.94C699.607 255.62 699.987 255.375 700.427 255.205C700.867 255.035 701.362 254.95 701.912 254.95C702.642 254.95 703.262 255.09 703.772 255.37C704.282 255.65 704.672 256.055 704.942 256.585C705.222 257.105 705.362 257.735 705.362 258.475C705.362 258.565 705.357 258.655 705.347 258.745C705.347 258.825 705.347 258.885 705.347 258.925H699.272V257.8H703.952L703.442 258.49C703.482 258.43 703.517 258.35 703.547 258.25C703.587 258.15 703.607 258.065 703.607 257.995C703.607 257.625 703.532 257.305 703.382 257.035C703.242 256.765 703.042 256.555 702.782 256.405C702.532 256.255 702.237 256.18 701.897 256.18C701.587 256.18 701.312 256.23 701.072 256.33C700.842 256.43 700.642 256.58 700.472 256.78C700.312 256.97 700.187 257.21 700.097 257.5C700.007 257.78 699.962 258.11 699.962 258.49C699.962 258.98 700.037 259.4 700.187 259.75C700.337 260.09 700.557 260.355 700.847 260.545C701.137 260.725 701.492 260.815 701.912 260.815C702.352 260.815 702.737 260.725 703.067 260.545C703.397 260.365 703.672 260.09 703.892 259.72L705.302 260.275C704.942 260.895 704.472 261.365 703.892 261.685C703.322 261.995 702.637 262.15 701.837 262.15ZM707.223 259.735C707.453 259.985 707.678 260.195 707.898 260.365C708.118 260.525 708.343 260.65 708.573 260.74C708.803 260.83 709.033 260.875 709.263 260.875C709.553 260.875 709.778 260.81 709.938 260.68C710.108 260.54 710.193 260.36 710.193 260.14C710.193 259.94 710.128 259.77 709.998 259.63C709.868 259.49 709.688 259.365 709.458 259.255C709.228 259.145 708.958 259.035 708.648 258.925C708.338 258.805 708.028 258.665 707.718 258.505C707.418 258.335 707.168 258.12 706.968 257.86C706.778 257.59 706.683 257.245 706.683 256.825C706.683 256.405 706.793 256.06 707.013 255.79C707.233 255.51 707.523 255.3 707.883 255.16C708.243 255.02 708.633 254.95 709.053 254.95C709.433 254.95 709.788 255.005 710.118 255.115C710.448 255.215 710.748 255.36 711.018 255.55C711.298 255.73 711.533 255.935 711.723 256.165L710.823 257.125C710.603 256.865 710.328 256.65 709.998 256.48C709.678 256.3 709.348 256.21 709.008 256.21C708.778 256.21 708.588 256.26 708.438 256.36C708.288 256.46 708.213 256.605 708.213 256.795C708.213 256.965 708.278 257.115 708.408 257.245C708.538 257.365 708.718 257.475 708.948 257.575C709.178 257.675 709.433 257.78 709.713 257.89C710.093 258.04 710.443 258.205 710.763 258.385C711.083 258.555 711.338 258.77 711.528 259.03C711.728 259.29 711.828 259.63 711.828 260.05C711.828 260.48 711.728 260.86 711.528 261.19C711.328 261.51 711.043 261.76 710.673 261.94C710.303 262.12 709.868 262.21 709.368 262.21C708.898 262.21 708.463 262.14 708.063 262C707.673 261.85 707.328 261.66 707.028 261.43C706.728 261.2 706.478 260.95 706.278 260.68L707.223 259.735ZM713.58 259.735C713.81 259.985 714.035 260.195 714.255 260.365C714.475 260.525 714.7 260.65 714.93 260.74C715.16 260.83 715.39 260.875 715.62 260.875C715.91 260.875 716.135 260.81 716.295 260.68C716.465 260.54 716.55 260.36 716.55 260.14C716.55 259.94 716.485 259.77 716.355 259.63C716.225 259.49 716.045 259.365 715.815 259.255C715.585 259.145 715.315 259.035 715.005 258.925C714.695 258.805 714.385 258.665 714.075 258.505C713.775 258.335 713.525 258.12 713.325 257.86C713.135 257.59 713.04 257.245 713.04 256.825C713.04 256.405 713.15 256.06 713.37 255.79C713.59 255.51 713.88 255.3 714.24 255.16C714.6 255.02 714.99 254.95 715.41 254.95C715.79 254.95 716.145 255.005 716.475 255.115C716.805 255.215 717.105 255.36 717.375 255.55C717.655 255.73 717.89 255.935 718.08 256.165L717.18 257.125C716.96 256.865 716.685 256.65 716.355 256.48C716.035 256.3 715.705 256.21 715.365 256.21C715.135 256.21 714.945 256.26 714.795 256.36C714.645 256.46 714.57 256.605 714.57 256.795C714.57 256.965 714.635 257.115 714.765 257.245C714.895 257.365 715.075 257.475 715.305 257.575C715.535 257.675 715.79 257.78 716.07 257.89C716.45 258.04 716.8 258.205 717.12 258.385C717.44 258.555 717.695 258.77 717.885 259.03C718.085 259.29 718.185 259.63 718.185 260.05C718.185 260.48 718.085 260.86 717.885 261.19C717.685 261.51 717.4 261.76 717.03 261.94C716.66 262.12 716.225 262.21 715.725 262.21C715.255 262.21 714.82 262.14 714.42 262C714.03 261.85 713.685 261.66 713.385 261.43C713.085 261.2 712.835 260.95 712.635 260.68L713.58 259.735ZM720.643 259.855C720.643 260.085 720.698 260.28 720.808 260.44C720.918 260.6 721.068 260.725 721.258 260.815C721.458 260.895 721.683 260.935 721.933 260.935C722.253 260.935 722.548 260.87 722.818 260.74C723.088 260.61 723.303 260.42 723.463 260.17C723.623 259.92 723.703 259.62 723.703 259.27L723.943 260.17C723.943 260.61 723.813 260.98 723.553 261.28C723.303 261.57 722.983 261.79 722.593 261.94C722.213 262.08 721.823 262.15 721.423 262.15C720.993 262.15 720.593 262.065 720.223 261.895C719.853 261.725 719.558 261.475 719.338 261.145C719.118 260.815 719.008 260.415 719.008 259.945C719.008 259.495 719.113 259.11 719.323 258.79C719.543 258.46 719.853 258.205 720.253 258.025C720.653 257.845 721.138 257.755 721.708 257.755C722.168 257.755 722.563 257.805 722.893 257.905C723.233 258.005 723.513 258.125 723.733 258.265C723.953 258.395 724.108 258.515 724.198 258.625V259.45C723.888 259.23 723.558 259.07 723.208 258.97C722.858 258.87 722.488 258.82 722.098 258.82C721.758 258.82 721.478 258.865 721.258 258.955C721.048 259.035 720.893 259.15 720.793 259.3C720.693 259.45 720.643 259.635 720.643 259.855ZM720.133 256.9L719.473 255.76C719.793 255.57 720.198 255.385 720.688 255.205C721.178 255.025 721.743 254.935 722.383 254.935C722.953 254.935 723.453 255.02 723.883 255.19C724.323 255.36 724.668 255.605 724.918 255.925C725.168 256.235 725.293 256.62 725.293 257.08V262H723.703V257.395C723.703 257.185 723.668 257.01 723.598 256.87C723.528 256.72 723.423 256.6 723.283 256.51C723.153 256.42 722.998 256.355 722.818 256.315C722.638 256.275 722.443 256.255 722.233 256.255C721.903 256.255 721.598 256.295 721.318 256.375C721.038 256.455 720.793 256.545 720.583 256.645C720.383 256.745 720.233 256.83 720.133 256.9ZM726.791 262.465H728.411C728.421 262.775 728.506 263.05 728.666 263.29C728.826 263.54 729.046 263.735 729.326 263.875C729.616 264.025 729.956 264.1 730.346 264.1C730.686 264.1 731.011 264.02 731.321 263.86C731.631 263.7 731.881 263.455 732.071 263.125C732.271 262.795 732.371 262.37 732.371 261.85V255.1H733.961V261.85C733.961 262.68 733.791 263.365 733.451 263.905C733.121 264.455 732.686 264.86 732.146 265.12C731.606 265.38 731.021 265.51 730.391 265.51C729.641 265.51 729.001 265.38 728.471 265.12C727.941 264.86 727.531 264.5 727.241 264.04C726.961 263.59 726.811 263.065 726.791 262.465ZM726.656 258.52C726.656 257.76 726.811 257.115 727.121 256.585C727.431 256.055 727.841 255.65 728.351 255.37C728.861 255.09 729.416 254.95 730.016 254.95C730.446 254.95 730.841 255.03 731.201 255.19C731.561 255.35 731.871 255.585 732.131 255.895C732.391 256.205 732.591 256.58 732.731 257.02C732.881 257.46 732.956 257.96 732.956 258.52C732.956 259.08 732.881 259.58 732.731 260.02C732.591 260.46 732.391 260.835 732.131 261.145C731.871 261.445 731.561 261.675 731.201 261.835C730.841 261.995 730.446 262.075 730.016 262.075C729.416 262.075 728.861 261.935 728.351 261.655C727.841 261.375 727.431 260.97 727.121 260.44C726.811 259.91 726.656 259.27 726.656 258.52ZM728.336 258.52C728.336 258.98 728.431 259.37 728.621 259.69C728.811 260.01 729.061 260.255 729.371 260.425C729.691 260.585 730.036 260.665 730.406 260.665C730.636 260.665 730.866 260.62 731.096 260.53C731.336 260.44 731.551 260.305 731.741 260.125C731.931 259.945 732.081 259.72 732.191 259.45C732.311 259.18 732.371 258.87 732.371 258.52C732.371 258.17 732.311 257.86 732.191 257.59C732.081 257.32 731.931 257.095 731.741 256.915C731.551 256.735 731.336 256.6 731.096 256.51C730.866 256.41 730.636 256.36 730.406 256.36C730.036 256.36 729.691 256.445 729.371 256.615C729.061 256.785 728.811 257.03 728.621 257.35C728.431 257.67 728.336 258.06 728.336 258.52ZM738.971 262.15C738.261 262.15 737.641 262 737.111 261.7C736.581 261.4 736.171 260.98 735.881 260.44C735.591 259.9 735.446 259.27 735.446 258.55C735.446 258.01 735.531 257.52 735.701 257.08C735.871 256.63 736.111 256.25 736.421 255.94C736.741 255.62 737.121 255.375 737.561 255.205C738.001 255.035 738.496 254.95 739.046 254.95C739.776 254.95 740.396 255.09 740.906 255.37C741.416 255.65 741.806 256.055 742.076 256.585C742.356 257.105 742.496 257.735 742.496 258.475C742.496 258.565 742.491 258.655 742.481 258.745C742.481 258.825 742.481 258.885 742.481 258.925H736.406V257.8H741.086L740.576 258.49C740.616 258.43 740.651 258.35 740.681 258.25C740.721 258.15 740.741 258.065 740.741 257.995C740.741 257.625 740.666 257.305 740.516 257.035C740.376 256.765 740.176 256.555 739.916 256.405C739.666 256.255 739.371 256.18 739.031 256.18C738.721 256.18 738.446 256.23 738.206 256.33C737.976 256.43 737.776 256.58 737.606 256.78C737.446 256.97 737.321 257.21 737.231 257.5C737.141 257.78 737.096 258.11 737.096 258.49C737.096 258.98 737.171 259.4 737.321 259.75C737.471 260.09 737.691 260.355 737.981 260.545C738.271 260.725 738.626 260.815 739.046 260.815C739.486 260.815 739.871 260.725 740.201 260.545C740.531 260.365 740.806 260.09 741.026 259.72L742.436 260.275C742.076 260.895 741.606 261.365 741.026 261.685C740.456 261.995 739.771 262.15 738.971 262.15Z" fill="white"/>
</g>
<defs>
<linearGradient id="paint0_linear_17_117" x1="0" y1="640" x2="640" y2="640" gradientUnits="userSpaceOnUse">
<stop stop-color="#5D0202" stop-opacity="0.01"/>
<stop offset="1" stop-color="#5D0202" stop-opacity="0.497569"/>
</linearGradient>
<clipPath id="clip0_17_117">
<rect width="380" height="38" fill="white" transform="translate(635 55)"/>
</clipPath>
<clipPath id="clip1_17_117">
<rect width="380" height="38" fill="white" transform="translate(635 118)"/>
</clipPath>
<clipPath id="clip2_17_117">
<rect width="380" height="38" fill="white" transform="translate(635 181)"/>
</clipPath>
<clipPath id="clip3_17_117">
<rect width="380" height="102" fill="white" transform="translate(635 244)"/>
</clipPath>
</defs>
</svg>
