<svg width="1111" height="292" viewBox="0 0 1111 292" fill="none" xmlns="http://www.w3.org/2000/svg">
<rect width="1111" height="292" rx="15" fill="#E7816B"/>
<mask id="mask0_0_10176" style="mask-type:luminance" maskUnits="userSpaceOnUse" x="0" y="0" width="1111" height="292">
<rect width="1111" height="292" rx="15" fill="white"/>
</mask>
<g mask="url(#mask0_0_10176)">
<g clip-path="url(#clip0_0_10176)">
<circle opacity="0.308943" cx="965" cy="292" r="146" transform="rotate(-90 965 292)" fill="url(#paint0_linear_0_10176)"/>
<circle opacity="0.308943" cx="673" cy="292" r="146" fill="url(#paint1_linear_0_10176)"/>
<circle opacity="0.308943" cx="381" cy="292" r="146" transform="rotate(90 381 292)" fill="url(#paint2_linear_0_10176)"/>
</g>
<g clip-path="url(#clip1_0_10176)">
<circle opacity="0.308943" cx="965" r="146" transform="rotate(-90 965 0)" fill="url(#paint3_linear_0_10176)"/>
<circle opacity="0.308943" cx="673" r="146" fill="url(#paint4_linear_0_10176)"/>
</g>
</g>
<defs>
<linearGradient id="paint0_linear_0_10176" x1="819" y1="438" x2="1111" y2="438" gradientUnits="userSpaceOnUse">
<stop stop-color="#5D0202" stop-opacity="0.01"/>
<stop offset="1" stop-color="#5D0202" stop-opacity="0.497569"/>
</linearGradient>
<linearGradient id="paint1_linear_0_10176" x1="527" y1="438" x2="819" y2="438" gradientUnits="userSpaceOnUse">
<stop stop-color="#5D0202" stop-opacity="0.01"/>
<stop offset="1" stop-color="#5D0202" stop-opacity="0.497569"/>
</linearGradient>
<linearGradient id="paint2_linear_0_10176" x1="235" y1="438" x2="527" y2="438" gradientUnits="userSpaceOnUse">
<stop stop-color="#5D0202" stop-opacity="0.01"/>
<stop offset="1" stop-color="#5D0202" stop-opacity="0.497569"/>
</linearGradient>
<linearGradient id="paint3_linear_0_10176" x1="819" y1="146" x2="1111" y2="146" gradientUnits="userSpaceOnUse">
<stop stop-color="#5D0202" stop-opacity="0.01"/>
<stop offset="1" stop-color="#5D0202" stop-opacity="0.497569"/>
</linearGradient>
<linearGradient id="paint4_linear_0_10176" x1="527" y1="146" x2="819" y2="146" gradientUnits="userSpaceOnUse">
<stop stop-color="#5D0202" stop-opacity="0.01"/>
<stop offset="1" stop-color="#5D0202" stop-opacity="0.497569"/>
</linearGradient>
<clipPath id="clip0_0_10176">
<rect width="876" height="292" fill="white" transform="matrix(-1 0 0 1 1111 146)"/>
</clipPath>
<clipPath id="clip1_0_10176">
<rect width="584" height="292" fill="white" transform="matrix(-1 0 0 1 1111 -146)"/>
</clipPath>
</defs>
</svg>
