<svg width="1111" height="640" viewBox="0 0 1111 640" fill="none" xmlns="http://www.w3.org/2000/svg">
<rect width="1111" height="640" rx="15" fill="#E7816B"/>
<mask id="mask0_12_622" style="mask-type:luminance" maskUnits="userSpaceOnUse" x="0" y="0" width="1111" height="640">
<rect width="1111" height="640" rx="15" fill="white"/>
</mask>
<g mask="url(#mask0_12_622)">
<circle opacity="0.308943" cx="320" cy="320" r="320" transform="matrix(0 -1 -1 0 1111 640)" fill="url(#paint0_linear_12_622)"/>
<g filter="url(#filter0_d_12_622)">
<path fill-rule="evenodd" clip-rule="evenodd" d="M1012.04 254.167H1013.24L1013.76 254.625V323.455L1013.24 323.991H1012.04V254.167Z" fill="url(#paint1_linear_12_622)"/>
<mask id="mask1_12_622" style="mask-type:luminance" maskUnits="userSpaceOnUse" x="1012" y="254" width="2" height="70">
<path fill-rule="evenodd" clip-rule="evenodd" d="M1012.04 254.167H1013.24L1013.76 254.625V323.455L1013.24 323.991H1012.04V254.167Z" fill="white"/>
</mask>
<g mask="url(#mask1_12_622)">
<g filter="url(#filter1_f_12_622)">
<path fill-rule="evenodd" clip-rule="evenodd" d="M1013.07 254.167H1014.28L1014.8 254.625V323.455L1014.28 323.991H1013.07V254.167Z" fill="#34423D"/>
</g>
</g>
<path fill-rule="evenodd" clip-rule="evenodd" d="M733.726 293.73H733.002L732.69 293.958V328.168L733.002 328.435H733.726V293.73Z" fill="url(#paint2_linear_12_622)"/>
<mask id="mask2_12_622" style="mask-type:luminance" maskUnits="userSpaceOnUse" x="732" y="293" width="2" height="36">
<path fill-rule="evenodd" clip-rule="evenodd" d="M733.726 293.73H733.002L732.69 293.958V328.168L733.002 328.435H733.726V293.73Z" fill="white"/>
</mask>
<g mask="url(#mask2_12_622)">
<g filter="url(#filter2_f_12_622)">
<path fill-rule="evenodd" clip-rule="evenodd" d="M733.035 293.73H732.311L731.999 293.958V328.168L732.311 328.435H733.035V293.73Z" fill="#34423D"/>
</g>
</g>
<path fill-rule="evenodd" clip-rule="evenodd" d="M733.726 250.002H733.002L732.69 250.23V284.44L733.002 284.707H733.726V250.002Z" fill="url(#paint3_linear_12_622)"/>
<mask id="mask3_12_622" style="mask-type:luminance" maskUnits="userSpaceOnUse" x="732" y="250" width="2" height="35">
<path fill-rule="evenodd" clip-rule="evenodd" d="M733.726 250.002H733.002L732.69 250.23V284.44L733.002 284.707H733.726V250.002Z" fill="white"/>
</mask>
<g mask="url(#mask3_12_622)">
<g filter="url(#filter3_f_12_622)">
<path fill-rule="evenodd" clip-rule="evenodd" d="M733.035 250.002H732.311L731.999 250.23V284.44L732.311 284.707H733.035V250.002Z" fill="#34423D"/>
</g>
</g>
<path fill-rule="evenodd" clip-rule="evenodd" d="M733.726 211.827H733.002L732.69 211.959V231.801L733.002 231.956H733.726V211.827Z" fill="url(#paint4_linear_12_622)"/>
<mask id="mask4_12_622" style="mask-type:luminance" maskUnits="userSpaceOnUse" x="732" y="211" width="2" height="21">
<path fill-rule="evenodd" clip-rule="evenodd" d="M733.726 211.827H733.002L732.69 211.959V231.801L733.002 231.956H733.726V211.827Z" fill="white"/>
</mask>
<g mask="url(#mask4_12_622)">
<g filter="url(#filter4_f_12_622)">
<path fill-rule="evenodd" clip-rule="evenodd" d="M733.035 211.827H732.311L731.999 211.959V231.801L732.311 231.956H733.035V211.827Z" fill="#34423D"/>
</g>
</g>
</g>
</g>
<defs>
<filter id="filter0_d_12_622" x="672.69" y="91.8273" width="441.073" height="276.607" filterUnits="userSpaceOnUse" color-interpolation-filters="sRGB">
<feFlood flood-opacity="0" result="BackgroundImageFix"/>
<feColorMatrix in="SourceAlpha" type="matrix" values="0 0 0 0 0 0 0 0 0 0 0 0 0 0 0 0 0 0 127 0" result="hardAlpha"/>
<feOffset dx="20" dy="-40"/>
<feGaussianBlur stdDeviation="40"/>
<feColorMatrix type="matrix" values="0 0 0 0 0.364781 0 0 0 0 0.00861907 0 0 0 0 0.00861907 0 0 0 0.497569 0"/>
<feBlend mode="normal" in2="BackgroundImageFix" result="effect1_dropShadow_12_622"/>
<feBlend mode="normal" in="SourceGraphic" in2="effect1_dropShadow_12_622" result="shape"/>
</filter>
<filter id="filter1_f_12_622" x="1011.83" y="252.924" width="4.21258" height="72.3102" filterUnits="userSpaceOnUse" color-interpolation-filters="sRGB">
<feFlood flood-opacity="0" result="BackgroundImageFix"/>
<feBlend mode="normal" in="SourceGraphic" in2="BackgroundImageFix" result="shape"/>
<feGaussianBlur stdDeviation="0.621523" result="effect1_foregroundBlur_12_622"/>
</filter>
<filter id="filter2_f_12_622" x="730.756" y="292.487" width="3.52199" height="37.1906" filterUnits="userSpaceOnUse" color-interpolation-filters="sRGB">
<feFlood flood-opacity="0" result="BackgroundImageFix"/>
<feBlend mode="normal" in="SourceGraphic" in2="BackgroundImageFix" result="shape"/>
<feGaussianBlur stdDeviation="0.621523" result="effect1_foregroundBlur_12_622"/>
</filter>
<filter id="filter3_f_12_622" x="730.756" y="248.759" width="3.52199" height="37.1907" filterUnits="userSpaceOnUse" color-interpolation-filters="sRGB">
<feFlood flood-opacity="0" result="BackgroundImageFix"/>
<feBlend mode="normal" in="SourceGraphic" in2="BackgroundImageFix" result="shape"/>
<feGaussianBlur stdDeviation="0.621523" result="effect1_foregroundBlur_12_622"/>
</filter>
<filter id="filter4_f_12_622" x="730.756" y="210.584" width="3.52199" height="22.6148" filterUnits="userSpaceOnUse" color-interpolation-filters="sRGB">
<feFlood flood-opacity="0" result="BackgroundImageFix"/>
<feBlend mode="normal" in="SourceGraphic" in2="BackgroundImageFix" result="shape"/>
<feGaussianBlur stdDeviation="0.621523" result="effect1_foregroundBlur_12_622"/>
</filter>
<linearGradient id="paint0_linear_12_622" x1="0" y1="640" x2="640" y2="640" gradientUnits="userSpaceOnUse">
<stop stop-color="#5D0202" stop-opacity="0.01"/>
<stop offset="1" stop-color="#5D0202" stop-opacity="0.497569"/>
</linearGradient>
<linearGradient id="paint1_linear_12_622" x1="1012.04" y1="254.167" x2="1012.04" y2="323.991" gradientUnits="userSpaceOnUse">
<stop stop-color="#BBBBBB"/>
<stop offset="0.049488" stop-color="#EAEAEA"/>
<stop offset="0.502066" stop-color="#D0D0D0"/>
<stop offset="0.95938" stop-color="#EBEBEB"/>
<stop offset="1" stop-color="#BBBBBB"/>
</linearGradient>
<linearGradient id="paint2_linear_12_622" x1="733.726" y1="293.73" x2="733.726" y2="328.435" gradientUnits="userSpaceOnUse">
<stop stop-color="#BBBBBB"/>
<stop offset="0.049488" stop-color="#EAEAEA"/>
<stop offset="0.502066" stop-color="#D0D0D0"/>
<stop offset="0.95938" stop-color="#EBEBEB"/>
<stop offset="1" stop-color="#BBBBBB"/>
</linearGradient>
<linearGradient id="paint3_linear_12_622" x1="733.726" y1="250.002" x2="733.726" y2="284.707" gradientUnits="userSpaceOnUse">
<stop stop-color="#BBBBBB"/>
<stop offset="0.049488" stop-color="#EAEAEA"/>
<stop offset="0.502066" stop-color="#D0D0D0"/>
<stop offset="0.95938" stop-color="#EBEBEB"/>
<stop offset="1" stop-color="#BBBBBB"/>
</linearGradient>
<linearGradient id="paint4_linear_12_622" x1="733.726" y1="211.827" x2="733.726" y2="231.956" gradientUnits="userSpaceOnUse">
<stop stop-color="#BBBBBB"/>
<stop offset="0.049488" stop-color="#EAEAEA"/>
<stop offset="0.502066" stop-color="#D0D0D0"/>
<stop offset="0.95938" stop-color="#EBEBEB"/>
<stop offset="1" stop-color="#BBBBBB"/>
</linearGradient>
</defs>
</svg>
