<svg width="25" height="25" viewBox="0 0 25 25" fill="none" xmlns="http://www.w3.org/2000/svg">
<g clip-path="url(#clip0_4862_9149)">
<path d="M22.184 19.5036C21.8211 20.3421 21.3915 21.1139 20.8937 21.8235C20.2152 22.7909 19.6597 23.4605 19.2315 23.8323C18.5679 24.4427 17.8568 24.7553 17.0953 24.7731C16.5487 24.7731 15.8894 24.6175 15.1221 24.302C14.3521 23.9879 13.6446 23.8323 12.9977 23.8323C12.3192 23.8323 11.5915 23.9879 10.8132 24.302C10.0336 24.6175 9.40564 24.7819 8.92551 24.7982C8.19531 24.8293 7.46748 24.5079 6.74099 23.8323C6.2773 23.4279 5.69732 22.7346 5.00252 21.7524C4.25707 20.7035 3.6442 19.4873 3.16407 18.1007C2.64986 16.6029 2.39209 15.1526 2.39209 13.7485C2.39209 12.1401 2.73963 10.7529 3.43576 9.5904C3.98285 8.65665 4.71068 7.92008 5.62162 7.37936C6.53255 6.83863 7.51681 6.56308 8.57678 6.54545C9.15676 6.54545 9.91733 6.72486 10.8625 7.07744C11.805 7.43121 12.4101 7.61061 12.6755 7.61061C12.8738 7.61061 13.5461 7.40084 14.6858 6.98263C15.7635 6.59479 16.6731 6.4342 17.4183 6.49746C19.4375 6.66041 20.9545 7.45639 21.9633 8.89042C20.1574 9.98461 19.2641 11.5172 19.2819 13.4832C19.2982 15.0145 19.8538 16.2889 20.9456 17.3007C21.4404 17.7703 21.9929 18.1333 22.6077 18.391C22.4744 18.7777 22.3337 19.148 22.184 19.5036ZM17.5531 1.28043C17.5531 2.4807 17.1146 3.6014 16.2405 4.6387C15.1858 5.87185 13.9099 6.58442 12.5264 6.47198C12.5088 6.32798 12.4986 6.17643 12.4986 6.01717C12.4986 4.86491 13.0002 3.63177 13.891 2.6235C14.3357 2.113 14.9013 1.68852 15.5872 1.34991C16.2716 1.01635 16.919 0.831882 17.5279 0.800293C17.5457 0.960751 17.5531 1.12122 17.5531 1.28041V1.28043Z" fill="#272D37"/>
</g>
<defs>
<clipPath id="clip0_4862_9149">
<rect width="24" height="24" fill="white" transform="translate(0.5 0.800293)"/>
</clipPath>
</defs>
</svg>
