<svg width="25" height="25" viewBox="0 0 25 25" fill="none" xmlns="http://www.w3.org/2000/svg">
<g clip-path="url(#clip0_4862_9139)">
<path d="M24.5 12.8003C24.5 6.17287 19.1274 0.800293 12.5 0.800293C5.87258 0.800293 0.5 6.17287 0.5 12.8003C0.5 18.7897 4.8882 23.7543 10.625 24.6545V16.269H7.57812V12.8003H10.625V10.1565C10.625 7.14904 12.4166 5.48779 15.1576 5.48779C16.4701 5.48779 17.8438 5.72217 17.8438 5.72217V8.67529H16.3306C14.84 8.67529 14.375 9.60037 14.375 10.5503V12.8003H17.7031L17.1711 16.269H14.375V24.6545C20.1118 23.7543 24.5 18.7897 24.5 12.8003Z" fill="#272D37"/>
<path d="M17.1711 16.269L17.7031 12.8003H14.375V10.5503C14.375 9.60131 14.84 8.67529 16.3306 8.67529H17.8438V5.72217C17.8438 5.72217 16.4705 5.48779 15.1576 5.48779C12.4166 5.48779 10.625 7.14904 10.625 10.1565V12.8003H7.57812V16.269H10.625V24.6545C11.8674 24.8489 13.1326 24.8489 14.375 24.6545V16.269H17.1711Z" fill="white"/>
</g>
<defs>
<clipPath id="clip0_4862_9139">
<rect width="24" height="24" fill="white" transform="translate(0.5 0.800293)"/>
</clipPath>
</defs>
</svg>
