<svg width="25" height="25" viewBox="0 0 25 25" fill="none" xmlns="http://www.w3.org/2000/svg">
<g clip-path="url(#clip0_4862_9143)">
<path d="M24.2628 13.0763C24.2628 12.2606 24.1967 11.4404 24.0556 10.6379H12.7368V15.2589H19.2185C18.9496 16.7493 18.0853 18.0677 16.8199 18.9054V21.9038H20.6869C22.9577 19.8138 24.2628 16.7272 24.2628 13.0763Z" fill="#272D37"/>
<path d="M12.7374 24.8005C15.9739 24.8005 18.7032 23.7379 20.6919 21.9036L16.8249 18.9052C15.749 19.6372 14.3601 20.0517 12.7418 20.0517C9.6112 20.0517 6.95678 17.9396 6.00436 15.1H2.01392V18.1909C4.05103 22.2431 8.20021 24.8005 12.7374 24.8005Z" fill="#272D37"/>
<path d="M5.99984 15.1005C5.49718 13.6102 5.49718 11.9963 5.99984 10.506V7.41504H2.01381C0.311804 10.8058 0.311804 14.8007 2.01381 18.1914L5.99984 15.1005Z" fill="#272D37"/>
<path d="M12.7374 5.54983C14.4482 5.52338 16.1017 6.16714 17.3408 7.34884L20.7668 3.92279C18.5974 1.88568 15.7181 0.765705 12.7374 0.80098C8.20021 0.80098 4.05103 3.35839 2.01392 7.41498L5.99995 10.5059C6.94796 7.6619 9.60679 5.54983 12.7374 5.54983Z" fill="#272D37"/>
</g>
<defs>
<clipPath id="clip0_4862_9143">
<rect width="24" height="24" fill="white" transform="translate(0.5 0.800293)"/>
</clipPath>
</defs>
</svg>
