<svg width="25" height="25" viewBox="0 0 25 25" fill="none" xmlns="http://www.w3.org/2000/svg">
<g clip-path="url(#clip0_4862_9151)">
<path d="M17.3503 0.800293H7.64973C3.70735 0.800293 0.5 4.00765 0.5 7.95002V17.6506C0.5 21.5929 3.70735 24.8003 7.64973 24.8003H17.3503C21.2926 24.8003 24.5 21.5929 24.5 17.6506V7.95002C24.5 4.00765 21.2926 0.800293 17.3503 0.800293ZM22.0856 17.6506C22.0856 20.2658 19.9655 22.3859 17.3503 22.3859H7.64973C5.0345 22.3859 2.9144 20.2658 2.9144 17.6506V7.95002C2.9144 5.33475 5.0345 3.21469 7.64973 3.21469H17.3503C19.9655 3.21469 22.0856 5.33475 22.0856 7.95002V17.6506Z" fill="#272D37"/>
<path d="M12.5 6.59302C9.07729 6.59302 6.29272 9.37759 6.29272 12.8002C6.29272 16.2229 9.07729 19.0075 12.5 19.0075C15.9227 19.0075 18.7072 16.2229 18.7072 12.8002C18.7072 9.37754 15.9227 6.59302 12.5 6.59302ZM12.5 16.5931C10.4052 16.5931 8.70712 14.895 8.70712 12.8003C8.70712 10.7055 10.4053 9.00742 12.5 9.00742C14.5947 9.00742 16.2928 10.7055 16.2928 12.8003C16.2928 14.895 14.5947 16.5931 12.5 16.5931Z" fill="#272D37"/>
<path d="M18.719 8.12703C19.5405 8.12703 20.2064 7.46112 20.2064 6.63969C20.2064 5.81825 19.5405 5.15234 18.719 5.15234C17.8976 5.15234 17.2317 5.81825 17.2317 6.63969C17.2317 7.46112 17.8976 8.12703 18.719 8.12703Z" fill="#272D37"/>
</g>
<defs>
<clipPath id="clip0_4862_9151">
<rect width="24" height="24" fill="white" transform="translate(0.5 0.800293)"/>
</clipPath>
</defs>
</svg>
