<svg width="48" height="48" viewBox="0 0 48 48" fill="none" xmlns="http://www.w3.org/2000/svg">
<rect width="48" height="48" rx="24" fill="#F5FAFF"/>
<path d="M24.0002 38.6668C32.1003 38.6668 38.6668 32.1003 38.6668 24.0002C38.6668 15.9 32.1003 9.3335 24.0002 9.3335M24.0002 38.6668C15.9 38.6668 9.3335 32.1003 9.3335 24.0002C9.3335 15.9 15.9 9.3335 24.0002 9.3335M24.0002 38.6668C26.9457 38.6668 29.3335 32.1003 29.3335 24.0002C29.3335 15.9 26.9457 9.3335 24.0002 9.3335M24.0002 38.6668C21.0546 38.6668 18.6668 32.1003 18.6668 24.0002C18.6668 15.9 21.0546 9.3335 24.0002 9.3335M10.6668 18.6668H37.3335M10.6668 28.0002H37.3335" stroke="#437EF7" stroke-width="2" stroke-linecap="round"/>
</svg>
