<svg width="48" height="48" viewBox="0 0 48 48" fill="none" xmlns="http://www.w3.org/2000/svg">
<rect width="48" height="48" rx="24" fill="#F5FAFF"/>
<path d="M27.8976 17.4507L25.1477 12.6638C24.6371 11.775 23.3563 11.7707 22.8398 12.6561L19.938 17.6306C19.5537 18.2895 18.9056 18.7523 18.1576 18.9019L14.1926 19.6948C13.1657 19.9002 12.7656 21.155 13.484 21.917L16.3518 24.9585C16.965 25.6089 17.2116 26.5233 17.0084 27.3939L15.7104 32.9569C15.4436 34.1005 16.6784 35.0056 17.6886 34.4069L22.6409 31.4722C23.4791 30.9755 24.5216 30.9755 25.3598 31.4722L30.3121 34.4069C31.3223 35.0056 32.5571 34.1005 32.2903 32.9569L30.9809 27.3451C30.7841 26.5016 31.0092 25.615 31.5847 24.9676L34.456 21.7373C35.1401 20.9677 34.7307 19.746 33.721 19.5441L29.6869 18.7373C28.9329 18.5865 28.2806 18.1175 27.8976 17.4507Z" stroke="#437EF7" stroke-width="2" stroke-miterlimit="10"/>
</svg>
