<svg width="160" height="41" viewBox="0 0 160 41" fill="none" xmlns="http://www.w3.org/2000/svg">
<path d="M41.321 12.3667H44.8702V25.8894H51.4481V28.9415H41.321V12.3667Z" fill="#2E343F"/>
<path d="M53.0459 26.1262C52.5025 25.125 52.2289 23.9996 52.252 22.8606C52.2289 21.7217 52.5025 20.5963 53.0459 19.595C53.5625 18.6595 54.3449 17.898 55.2941 17.4068C56.346 16.8997 57.4987 16.6363 58.6664 16.6363C59.8342 16.6363 60.9869 16.8997 62.0388 17.4068C62.9866 17.9 63.7684 18.6609 64.287 19.595C64.8278 20.5971 65.1001 21.7221 65.0775 22.8606C65.1029 24.0037 64.8304 25.1336 64.287 26.1396C63.7649 27.0676 62.9837 27.8234 62.0388 28.3144C60.9869 28.8215 59.8342 29.0849 58.6664 29.0849C57.4987 29.0849 56.346 28.8215 55.2941 28.3144C54.3449 27.8232 53.5625 27.0618 53.0459 26.1262ZM61.6952 22.8606C61.7327 21.9441 61.4378 21.045 60.8646 20.3289C60.5948 20.013 60.2567 19.7627 59.8759 19.5968C59.495 19.431 59.0814 19.3539 58.6664 19.3715C58.2517 19.3548 57.8387 19.4337 57.4593 19.602C57.0799 19.7703 56.7442 20.0236 56.4782 20.3422C55.9085 21.0595 55.6182 21.959 55.661 22.874C55.6182 23.789 55.9085 24.6884 56.4782 25.4057C56.7442 25.7244 57.0799 25.9776 57.4593 26.1459C57.8387 26.3142 58.2517 26.3931 58.6664 26.3764C59.0836 26.3907 59.4985 26.3095 59.8795 26.139C60.2605 25.9685 60.5974 25.7131 60.8646 25.3924C61.4378 24.6762 61.7327 23.7771 61.6952 22.8606Z" fill="#2E343F"/>
<path d="M67.2424 26.1262C66.699 25.125 66.4254 23.9996 66.4485 22.8606C66.4254 21.7217 66.699 20.5963 67.2424 19.595C67.759 18.6595 68.5414 17.898 69.4906 17.4068C70.5419 16.8998 71.6941 16.6364 72.8613 16.6364C74.0285 16.6364 75.1806 16.8998 76.2319 17.4068C77.1811 17.898 77.9635 18.6595 78.4802 19.595C79.0235 20.5963 79.2971 21.7217 79.2741 22.8606C79.2999 24.0041 79.0262 25.1345 78.4802 26.1396C77.96 27.0691 77.1782 27.8253 76.2319 28.3144C75.1806 28.8215 74.0285 29.0848 72.8613 29.0848C71.6941 29.0848 70.5419 28.8215 69.4906 28.3144C68.5414 27.8232 67.759 27.0618 67.2424 26.1262ZM75.8917 22.8606C75.933 21.9458 75.6428 21.0469 75.0745 20.3289C74.7951 20.0231 74.455 19.7788 74.0759 19.6117C73.6969 19.4446 73.2872 19.3583 72.8729 19.3583C72.4587 19.3583 72.049 19.4446 71.6699 19.6117C71.2909 19.7788 70.9508 20.0231 70.6714 20.3289C70.109 21.0492 69.8248 21.9479 69.8708 22.8606C69.8286 23.775 70.1176 24.6739 70.6848 25.3924C70.9642 25.6982 71.3042 25.9425 71.6833 26.1096C72.0623 26.2767 72.472 26.363 72.8863 26.363C73.3005 26.363 73.7102 26.2767 74.0893 26.1096C74.4683 25.9425 74.8084 25.6982 75.0878 25.3924C75.6514 24.6725 75.9368 23.7737 75.8917 22.8606Z" fill="#2E343F"/>
<path d="M84.4543 12.3667V21.96L89.2343 16.7797H92.9736L88.6372 21.5364L93.2204 28.9415H89.3544L86.2789 24.0214L84.4543 25.9828V28.9415H81.1187V12.3667H84.4543Z" fill="#2E343F"/>
<path d="M97.3266 26.1963C97.8651 26.5536 98.502 26.7333 99.1479 26.71C99.7229 26.7396 100.296 26.6249 100.816 26.3764C101.007 26.2898 101.169 26.1487 101.28 25.9707C101.392 25.7927 101.448 25.5857 101.443 25.3757C101.453 25.2435 101.433 25.1107 101.384 24.9875C101.334 24.8643 101.258 24.7541 101.159 24.6652C100.922 24.4912 100.646 24.3767 100.355 24.3317C100.022 24.2616 99.4414 24.1782 98.6509 24.0848C97.7481 23.9764 96.8556 23.7945 95.9823 23.5411C95.3309 23.3538 94.7421 22.9942 94.2778 22.5004C93.832 21.9728 93.603 21.2956 93.6374 20.6057C93.6287 19.8539 93.8627 19.1193 94.3045 18.5109C94.7701 17.8785 95.4049 17.3905 96.1358 17.1033C97.001 16.7583 97.9264 16.5893 98.8577 16.6063C100.514 16.6219 101.849 16.9765 102.86 17.6704C103.346 17.9844 103.75 18.4109 104.036 18.9137C104.322 19.4165 104.483 19.9809 104.505 20.559H101.336C101.311 20.3288 101.232 20.1076 101.107 19.9127C100.982 19.7177 100.814 19.5542 100.616 19.4349C100.116 19.1252 99.535 18.973 98.9478 18.9979C98.4168 18.9733 97.8893 19.0957 97.4233 19.3515C97.2494 19.4415 97.1034 19.5773 97.0011 19.7443C96.8988 19.9113 96.8441 20.103 96.8429 20.2989C96.8353 20.4224 96.8596 20.5459 96.9133 20.6574C96.967 20.769 97.0485 20.8649 97.1498 20.936C97.3933 21.0941 97.6671 21.1998 97.9537 21.2462C98.2873 21.3062 98.8377 21.3796 99.6215 21.4563C101.263 21.6476 102.521 21.9989 103.398 22.5104C104.271 23.0241 104.708 23.9014 104.708 25.1489C104.72 25.9019 104.474 26.6362 104.011 27.2303C103.503 27.861 102.832 28.3399 102.07 28.6146C101.15 28.955 100.175 29.1202 99.1946 29.1016C97.5067 29.1016 96.1347 28.7269 95.0784 27.9775C94.5762 27.6364 94.1629 27.1802 93.8728 26.647C93.5827 26.1138 93.4242 25.5189 93.4106 24.9121H96.5561C96.5787 25.1705 96.6599 25.4205 96.7934 25.6429C96.9269 25.8654 97.1092 26.0546 97.3266 26.1963Z" fill="#2E343F"/>
<path d="M112.397 29.085C111.246 29.111 110.106 28.846 109.085 28.3144C108.155 27.8171 107.394 27.0557 106.897 26.1262C106.371 25.1192 106.107 23.9963 106.129 22.8606C106.104 21.7215 106.368 20.5945 106.897 19.585C107.399 18.6573 108.165 17.8994 109.098 17.4068C110.128 16.8741 111.275 16.6091 112.434 16.6363C114.059 16.6363 115.384 17.051 116.407 17.8805C117.453 18.7453 118.13 19.9762 118.301 21.3229H114.835C114.72 20.764 114.421 20.2601 113.985 19.8919C113.537 19.5282 112.973 19.3386 112.397 19.3582C111.998 19.3447 111.602 19.4256 111.24 19.5943C110.878 19.763 110.562 20.0147 110.316 20.3289C109.769 21.0565 109.493 21.9517 109.535 22.8606C109.493 23.7696 109.769 24.6648 110.316 25.3924C110.56 25.709 110.876 25.9633 111.238 26.1343C111.6 26.3053 111.997 26.3883 112.397 26.3764C112.985 26.3971 113.561 26.2039 114.018 25.8327C114.464 25.4489 114.761 24.9215 114.859 24.3417H118.291C118.135 25.7031 117.462 26.9524 116.41 27.8308C115.376 28.6669 114.038 29.085 112.397 29.085Z" fill="#2E343F"/>
<path d="M120.239 26.1262C119.696 25.125 119.422 23.9996 119.445 22.8606C119.422 21.7217 119.696 20.5963 120.239 19.595C120.756 18.6595 121.538 17.898 122.487 17.4068C123.539 16.8998 124.691 16.6364 125.858 16.6364C127.025 16.6364 128.177 16.8998 129.229 17.4068C130.178 17.898 130.96 18.6595 131.477 19.595C132.02 20.5963 132.294 21.7217 132.271 22.8606C132.297 24.0041 132.023 25.1345 131.477 26.1396C130.961 27.0667 130.186 27.8227 129.245 28.3144C128.194 28.8215 127.042 29.0848 125.875 29.0848C124.708 29.0848 123.555 28.8215 122.504 28.3144C121.549 27.8259 120.76 27.0642 120.239 26.1262ZM128.889 22.8606C128.93 21.9458 128.64 21.0469 128.071 20.3289C127.792 20.0231 127.452 19.7788 127.073 19.6117C126.694 19.4446 126.284 19.3583 125.87 19.3583C125.456 19.3583 125.046 19.4446 124.667 19.6117C124.288 19.7788 123.948 20.0231 123.668 20.3289C123.101 21.0473 122.812 21.9463 122.854 22.8606C122.812 23.775 123.101 24.6739 123.668 25.3924C123.948 25.6982 124.288 25.9425 124.667 26.1096C125.046 26.2767 125.456 26.363 125.87 26.363C126.284 26.363 126.694 26.2767 127.073 26.1096C127.452 25.9425 127.792 25.6982 128.071 25.3924C128.641 24.6749 128.932 23.7758 128.892 22.8606H128.889Z" fill="#2E343F"/>
<path d="M145.57 28.9415H142.615L142.305 27.4738C141.877 28.004 141.331 28.4261 140.711 28.706C140.09 28.9859 139.412 29.1157 138.732 29.0849C138.093 29.1093 137.456 29.0056 136.858 28.7799C136.26 28.5542 135.713 28.2111 135.25 27.7707C134.36 26.8968 133.915 25.4335 133.915 23.381V16.7797H137.251V22.9774C137.251 24.0848 137.444 24.9154 137.831 25.4758C138.033 25.7571 138.303 25.9822 138.616 26.1294C138.929 26.2765 139.274 26.3409 139.619 26.3164C139.994 26.3332 140.368 26.2568 140.706 26.0937C141.044 25.9307 141.337 25.6863 141.557 25.3824C142.018 24.7586 142.244 23.8847 142.244 22.7672V16.7797H145.58L145.57 28.9415Z" fill="#2E343F"/>
<path d="M146.754 19.595V16.7797H148.756V13.3674H152.091V16.7797H154.86V19.595H152.091V24.9321C152.061 25.2631 152.158 25.5933 152.361 25.856C152.487 25.9619 152.633 26.0416 152.79 26.0903C152.947 26.139 153.112 26.1557 153.275 26.1396H155V28.9549H152.261C149.94 28.9549 148.78 27.7952 148.782 25.4758V19.595H146.754Z" fill="#2E343F"/>
<path d="M22.3205 9.80029L5 19.8003V13.8003L17.1282 6.80029L22.3205 9.80029Z" fill="#2E343F"/>
<path d="M29.2564 13.8003V17.2618L8 29.5311L5 27.8003V24.5439L26.4231 12.1721L29.2564 13.8003Z" fill="#2E343F"/>
<path d="M12.1026 31.9029L29.2564 22.0054V27.8003L17.1282 34.8003L12.1026 31.9029Z" fill="#2E343F"/>
</svg>
