<svg width="49" height="48" viewBox="0 0 49 48" fill="none" xmlns="http://www.w3.org/2000/svg">
<rect x="0.5" width="48" height="48" rx="24" fill="#437EF7"/>
<path d="M20.4736 21.0056C21.3215 22.7716 22.4774 24.4268 23.9413 25.8907C25.4051 27.3545 27.0603 28.5104 28.8264 29.3584C28.9783 29.4313 29.0542 29.4678 29.1503 29.4958C29.4919 29.5953 29.9113 29.5238 30.2006 29.3167C30.282 29.2584 30.3516 29.1888 30.4909 29.0495C30.9168 28.6236 31.1297 28.4106 31.3439 28.2714C32.1515 27.7463 33.1926 27.7463 34.0002 28.2714C34.2143 28.4106 34.4273 28.6236 34.8532 29.0495L35.0906 29.2869C35.738 29.9344 36.0618 30.2581 36.2376 30.6058C36.5874 31.2972 36.5874 32.1138 36.2376 32.8052C36.0618 33.1529 35.738 33.4766 35.0906 34.1241L34.8986 34.3161C34.2533 34.9613 33.9307 35.284 33.4921 35.5304C33.0054 35.8038 32.2494 36.0003 31.6912 35.9987C31.1881 35.9972 30.8443 35.8996 30.1566 35.7044C26.4611 34.6555 22.974 32.6765 20.0647 29.7672C17.1555 26.858 15.1764 23.3708 14.1275 19.6753C13.9323 18.9877 13.8348 18.6438 13.8333 18.1407C13.8316 17.5825 14.0282 16.8266 14.3016 16.3399C14.548 15.9012 14.8706 15.5786 15.5158 14.9334L15.7079 14.7414C16.3553 14.0939 16.679 13.7702 17.0267 13.5943C17.7182 13.2446 18.5347 13.2446 19.2262 13.5943C19.5739 13.7702 19.8976 14.0939 20.545 14.7414L20.7824 14.9788C21.2084 15.4047 21.4213 15.6176 21.5605 15.8318C22.0856 16.6394 22.0856 17.6805 21.5605 18.4881C21.4213 18.7022 21.2084 18.9152 20.7824 19.3411C20.6432 19.4804 20.5735 19.55 20.5153 19.6314C20.3081 19.9206 20.2366 20.34 20.3362 20.6816C20.3642 20.7777 20.4007 20.8537 20.4736 21.0056Z" fill="white"/>
</svg>
